<svg width="75" height="28" viewBox="0 0 75 28" fill="none" xmlns="http://www.w3.org/2000/svg">
<path d="M12.1841 26.1142C11.7442 25.6779 11.4715 25.1026 11.4126 24.4864C11.3536 23.8703 11.5121 23.2513 11.8608 22.7351C12.2096 22.2188 12.7272 21.8372 13.3253 21.6553C13.9235 21.4734 14.5652 21.5025 15.1411 21.7375C15.717 21.9725 16.1915 22.399 16.4837 22.9442C16.7759 23.4895 16.8677 24.1197 16.7435 24.7276C16.6193 25.3355 16.2868 25.8834 15.8026 26.2779C15.3184 26.6724 14.7125 26.8892 14.0881 26.8912C13.7338 26.8933 13.3831 26.8257 13.0563 26.6923C12.7295 26.559 12.4331 26.3625 12.1841 26.1142V26.1142Z" fill="#181818"/>
<path d="M12.0646 5.73462C11.6887 5.36148 11.4335 4.8854 11.3313 4.36651C11.2291 3.84761 11.2844 3.30918 11.4902 2.81922C11.6961 2.32926 12.0432 1.90974 12.4878 1.61365C12.9324 1.31756 13.4545 1.15818 13.9882 1.15564C14.7041 1.15323 15.3896 1.43294 15.894 1.93329C16.3983 2.43364 16.6803 3.11366 16.6779 3.82385C16.6767 4.17556 16.6057 4.52411 16.4689 4.84957C16.3321 5.17503 16.1322 5.47102 15.8805 5.72063C15.6289 5.97024 15.3306 6.16857 15.0025 6.30429C14.6744 6.44001 14.3231 6.51046 13.9685 6.51161C13.6142 6.51397 13.2634 6.4465 12.9366 6.31312C12.6098 6.17974 12.3133 5.98311 12.0646 5.73462V5.73462Z" fill="#181818"/>
<path d="M1.90165 15.8422C1.52578 15.4691 1.27063 14.993 1.16841 14.4741C1.06619 13.9552 1.12149 13.4168 1.32733 12.9268C1.53317 12.4369 1.88031 12.0173 2.32492 11.7212C2.76952 11.4252 3.29164 11.2658 3.82534 11.2632C4.26955 11.2611 4.70663 11.3678 5.09783 11.5737C5.48903 11.7796 5.82226 12.0785 6.06799 12.4438C6.31372 12.8092 6.46436 13.2297 6.50654 13.668C6.54873 14.1064 6.48116 14.5491 6.30983 14.9569C6.13851 15.3647 5.86871 15.7251 5.52436 16.0059C5.18001 16.2868 4.77174 16.4796 4.33575 16.5671C3.89976 16.6547 3.44951 16.6344 3.02491 16.5079C2.60032 16.3814 2.2145 16.1528 1.90165 15.8422V15.8422Z" fill="#181818"/>
<path d="M12.0371 15.9141C11.661 15.5415 11.4056 15.0657 11.303 14.5471C11.2004 14.0285 11.2553 13.4902 11.4608 13.0003C11.6663 12.5104 12.0131 12.0909 12.4574 11.7947C12.9017 11.4985 13.4236 11.339 13.9571 11.3364C14.1211 11.3362 14.2845 11.3525 14.4449 11.3852C14.5007 11.3946 14.548 11.4053 14.5977 11.4183C14.7093 11.4468 14.816 11.4801 14.9117 11.5147C14.9638 11.535 15.0172 11.5541 15.0705 11.578C15.1766 11.6249 15.2797 11.678 15.3794 11.737L15.4412 11.7717L15.4775 11.7932L15.93 12.1841C15.9833 12.2369 16.0328 12.303 16.0847 12.3714L16.1089 12.3954L16.1621 12.4482L16.179 12.465L16.1984 12.4842L16.2153 12.501L16.3084 12.5934C16.6805 12.9566 17.1222 13.2421 17.6079 13.4335C18.0936 13.6248 18.6135 13.718 19.1373 13.7078C19.6595 13.7014 20.1759 13.5917 20.6562 13.3851C21.1366 13.1784 21.5712 12.879 21.9346 12.5044L21.9553 12.4838L21.9785 12.4609C21.9958 12.4373 22.0146 12.4147 22.0346 12.3932C22.0589 12.3691 22.0809 12.3425 22.1004 12.3135L22.143 12.2712C22.1808 12.2337 22.2089 12.1915 22.243 12.1528L22.702 11.7598C22.7154 11.7519 22.7292 11.7446 22.7434 11.738L22.7774 11.7186C22.8785 11.6547 22.9837 11.5976 23.0924 11.5477C23.144 11.5232 23.1967 11.5013 23.2505 11.4821C23.3488 11.4442 23.449 11.4113 23.5506 11.3835C23.5992 11.3713 23.6478 11.3591 23.6988 11.3493C23.8605 11.3167 24.0247 11.2991 24.1894 11.2969C24.906 11.2949 25.5919 11.5755 26.0963 12.0768C26.6007 12.578 26.8823 13.259 26.879 13.9699C26.8757 14.6808 26.5879 15.3634 26.0789 15.8674C25.5699 16.3715 24.8814 16.6557 24.1648 16.6577C24.0009 16.6566 23.8376 16.6402 23.6771 16.6089C23.6237 16.5995 23.5752 16.5876 23.5279 16.5745C23.421 16.549 23.3157 16.5172 23.2127 16.4793C23.1581 16.4591 23.1036 16.4388 23.0551 16.4173C22.9511 16.3712 22.8507 16.3176 22.7547 16.257L22.6965 16.2235L22.6566 16.2032L22.198 15.8087C22.1484 15.7595 22.1049 15.6971 22.0566 15.6346L22.0191 15.5974L21.9659 15.5446L21.9514 15.5302L21.9296 15.5086L21.8196 15.3995C21.0682 14.6739 20.0557 14.2749 19.0033 14.2898C17.9509 14.3046 16.9442 14.7321 16.2032 15.4788L16.1812 15.5006L16.1605 15.5211C16.1432 15.5447 16.1244 15.5673 16.1044 15.5887C16.0789 15.6141 16.0557 15.6371 16.0386 15.6684C16.0173 15.6919 15.9974 15.7165 15.9789 15.7421C15.9496 15.7711 15.9204 15.8001 15.8911 15.8291L15.8814 15.8388L15.4406 16.2161C15.4321 16.2245 15.3689 16.2561 15.3506 16.267C15.2501 16.3314 15.1452 16.3889 15.0368 16.4391C14.9871 16.4632 14.9359 16.4843 14.8837 16.5023C14.7777 16.5418 14.6698 16.5759 14.5604 16.6046C14.513 16.6156 14.4584 16.629 14.4049 16.6389C14.2458 16.6711 14.0839 16.6878 13.9217 16.6888C13.213 16.6892 12.5352 16.4106 12.0371 15.9141Z" fill="#181818"/>
<path d="M7.03783 21.0093C6.66224 20.6366 6.40717 20.1612 6.3048 19.6428C6.20243 19.1245 6.25735 18.5866 6.46262 18.097C6.6679 17.6074 7.01434 17.1881 7.45821 16.8919C7.90208 16.5957 8.4235 16.4359 8.95665 16.4327C9.12216 16.4333 9.28712 16.4497 9.44926 16.4815C9.49657 16.4898 9.54507 16.5017 9.59479 16.5147C9.70228 16.5411 9.8083 16.5728 9.91245 16.6099L10.07 16.6719C10.1723 16.7195 10.2714 16.7735 10.3668 16.8334L10.4637 16.8861L10.9259 17.2817C10.9767 17.3321 11.0214 17.3958 11.0709 17.4594L11.1036 17.4918L11.1604 17.5482L11.181 17.5686L11.1943 17.5818L11.2124 17.5998L11.3067 17.6934C12.0584 18.4174 13.0704 18.815 14.1219 18.7995C15.1734 18.784 16.1791 18.3565 16.9195 17.6104L17.0085 17.5222L17.0109 17.5053C17.0135 17.5015 17.0168 17.4982 17.0207 17.4957L17.084 17.4328L17.1377 17.3652C17.1718 17.3314 17.1962 17.2903 17.2291 17.2553L17.6723 16.8732C17.6833 16.8623 17.7514 16.8284 17.7697 16.8175C17.8645 16.753 17.9632 16.6943 18.0653 16.6418C18.1168 16.6179 18.1695 16.5969 18.2233 16.5786C18.3276 16.5397 18.4338 16.5063 18.5416 16.4787L18.5635 16.4738C18.6036 16.4628 18.6425 16.4531 18.6838 16.4457C18.8466 16.413 19.0121 16.3951 19.178 16.3921C19.8942 16.3898 20.5799 16.6697 21.0844 17.1703C21.589 17.6708 21.8711 18.3511 21.8688 19.0615C21.8641 19.7715 21.5764 20.4527 21.0685 20.9566C20.5606 21.4604 19.8739 21.7458 19.1583 21.7505C18.994 21.7477 18.8305 21.7309 18.6693 21.7005L18.5662 21.678L18.5129 21.6661C18.4093 21.6399 18.3073 21.6081 18.2073 21.5709C18.1504 21.5507 18.0995 21.5316 18.0473 21.5089C17.9433 21.4609 17.8425 21.4061 17.7457 21.345L17.6827 21.3115L17.6464 21.29L17.1927 20.9003C17.131 20.8391 17.0766 20.761 17.0199 20.6878L16.9642 20.6326L16.9546 20.623L16.9183 20.587L16.824 20.4934C16.0729 19.765 15.0591 19.3641 14.0049 19.3787C12.9507 19.3934 11.9425 19.8224 11.2015 20.5716L11.1795 20.5933L11.1588 20.6139C11.1381 20.6368 11.1162 20.6586 11.093 20.6791C11.0711 20.7009 11.048 20.7239 11.0333 20.7504C11.0186 20.7769 10.9919 20.7915 10.9687 20.8145C10.9411 20.8511 10.9114 20.8862 10.8798 20.9195L10.445 21.3221L10.361 21.3693C10.2601 21.4331 10.1553 21.4906 10.0472 21.5415C10.001 21.5633 9.95121 21.5815 9.90258 21.601L9.88435 21.6071C9.78333 21.6445 9.68028 21.6762 9.57571 21.7021C9.52347 21.7155 9.47365 21.729 9.42264 21.7388C8.99388 21.8223 8.55171 21.7995 8.13559 21.6722C7.71946 21.5449 7.34233 21.3172 7.03783 21.0093V21.0093Z" fill="#181818"/>
<path d="M7.07415 10.7871C6.69759 10.4142 6.44175 9.93816 6.33898 9.41908C6.2362 8.90001 6.29111 8.36123 6.49675 7.87087C6.70238 7.38051 7.04953 6.96059 7.49428 6.6642C7.93903 6.36781 8.46143 6.20825 8.99541 6.20571C9.16007 6.20718 9.32414 6.22351 9.4856 6.25451L9.63841 6.28767C9.7427 6.31378 9.84575 6.34592 9.95122 6.38287C10.0033 6.40315 10.0567 6.42222 10.1112 6.44731C10.2128 6.49386 10.3111 6.547 10.4056 6.60639L10.4673 6.64109C10.4786 6.64635 10.4896 6.65234 10.5 6.65903L10.9622 7.05471C11.0179 7.1099 11.0722 7.18557 11.1229 7.25281L11.1363 7.26601L11.1931 7.3224L11.2112 7.34039L11.2294 7.35839L11.3455 7.47356C11.7174 7.83567 12.1587 8.12034 12.6437 8.31102C13.1287 8.50171 13.6477 8.59462 14.1707 8.58436C14.693 8.57751 15.2095 8.46734 15.6898 8.26028C16.1701 8.05323 16.6047 7.75346 16.968 7.37855L16.9887 7.358L17.0094 7.33746C17.0285 7.31009 17.0497 7.28424 17.0728 7.26017L17.1313 7.20216L17.1716 7.13097C17.2057 7.09713 17.2338 7.05248 17.2679 7.01623L17.699 6.64621L17.7087 6.63654L17.716 6.62929C17.7258 6.61962 17.7975 6.58444 17.7975 6.58444C17.8985 6.52075 18.0033 6.46326 18.1113 6.41232C18.1612 6.38926 18.2146 6.3698 18.2681 6.35035C18.372 6.31028 18.4784 6.27691 18.5865 6.25046L18.5975 6.23958C18.6424 6.22858 18.6861 6.21638 18.7323 6.20899C18.8923 6.17633 19.0549 6.15881 19.218 6.15666C19.9359 6.15342 20.6236 6.43322 21.1298 6.9345C21.636 7.43578 21.9193 8.11749 21.9173 8.82965C21.9153 9.54181 21.6283 10.2261 21.1192 10.7319C20.6102 11.2378 19.921 11.5238 19.2031 11.5271C19.0396 11.5253 18.8767 11.5086 18.7166 11.477C18.6668 11.4688 18.6268 11.4581 18.5856 11.4486L18.5625 11.4427C18.451 11.4142 18.3467 11.3833 18.2509 11.3487C18.1952 11.3272 18.1431 11.3093 18.0934 11.2866C17.9891 11.2386 17.888 11.1843 17.7905 11.124C17.7702 11.1109 17.7492 11.0989 17.7275 11.0881L17.6888 11.0665L17.2375 10.6768C17.1843 10.6241 17.1372 10.558 17.0852 10.492L17.0586 10.4656L17.0042 10.4116L16.9691 10.3768L16.9498 10.3576L16.8554 10.264C16.1036 9.53977 15.0912 9.14212 14.0394 9.15789C12.9876 9.17365 11.9817 9.60155 11.2414 10.3482L11.2207 10.3687L11.1988 10.3905C11.1807 10.4149 11.1611 10.4383 11.1403 10.4605C11.1171 10.4835 11.0952 10.5052 11.0793 10.533C11.0634 10.5607 11.0379 10.5741 11.0232 10.603C10.9959 10.6385 10.9666 10.6723 10.9355 10.7045L10.4874 11.089C10.474 11.0978 10.4602 11.1059 10.446 11.1132L10.3974 11.1399C10.2973 11.2048 10.1929 11.2627 10.0848 11.3132C10.0349 11.3363 9.97904 11.3558 9.92435 11.3764C9.82325 11.4157 9.72022 11.4499 9.61567 11.4787C9.56221 11.4933 9.51362 11.5055 9.46382 11.5142C9.30227 11.5473 9.13799 11.5648 8.97326 11.5665C8.61928 11.5685 8.26891 11.501 7.94234 11.3678C7.61577 11.2347 7.31947 11.0385 7.07049 10.7907L7.07415 10.7871Z" fill="#181818"/>
<path fill-rule="evenodd" clip-rule="evenodd" d="M28.4368 4.79054H41.9985V3.08374H28.4368V4.79054ZM46.3517 4.79054H58.185V3.08375H44.6233V4.79054H44.6449V9.64583H44.6232V11.3526H44.6449V11.3741H46.3517V11.3526H58.1849V9.64583H46.3517L46.3517 4.79054ZM58.1849 17.4772H44.6232V15.7704H58.1849V17.4772ZM35.8524 7.87437L35.8524 17.4988H34.1456L34.1456 7.87437H35.8524ZM67.3647 5.27803C66.1284 5.07257 64.8592 5.31251 63.7832 5.95514C62.7072 6.59777 61.8941 7.6014 61.4888 8.78735C61.0834 9.9733 61.112 11.2646 61.5696 12.4314C62.0271 13.5982 62.8839 14.5648 63.9873 15.1591C65.0908 15.7534 66.3693 15.9369 67.5954 15.6768C68.2936 15.5287 68.949 15.2422 69.5255 14.84L66.4972 11.8117V9.1868L74.8092 17.4988H72.1844L70.7467 16.0611C69.9271 16.6873 68.9731 17.1293 67.9495 17.3465C66.3281 17.6904 64.6373 17.4478 63.178 16.6618C61.7187 15.8759 60.5857 14.5976 59.9806 13.0545C59.3755 11.5114 59.3376 9.8037 59.8737 8.23531C60.4098 6.66692 61.4851 5.33965 62.9081 4.48979C64.3311 3.63992 66.0095 3.32261 67.6446 3.59432C69.2796 3.86604 70.7652 4.70917 71.8368 5.9736C72.9085 7.23804 73.4967 8.84174 73.4967 10.4992H71.7899C71.7899 9.24591 71.3451 8.03326 70.5348 7.07714C69.7244 6.12103 68.6011 5.48349 67.3647 5.27803Z" fill="#181818"/>
<path d="M35.4722 25.3735L34.2543 20.9192H34.8024L35.7332 24.547H35.7767L36.725 20.9192H37.334L38.2823 24.547H38.3258L39.2566 20.9192H39.8047L38.5868 25.3735H38.03L37.0469 21.824H37.0121L36.029 25.3735H35.4722Z" fill="#181818"/>
<path d="M46.9043 23.1463C46.9043 23.6161 46.8195 24.0221 46.6499 24.3643C46.4802 24.7065 46.2475 24.9704 45.9517 25.156C45.6559 25.3416 45.3181 25.4344 44.9382 25.4344C44.5583 25.4344 44.2204 25.3416 43.9247 25.156C43.6289 24.9704 43.3961 24.7065 43.2265 24.3643C43.0569 24.0221 42.972 23.6161 42.972 23.1463C42.972 22.6765 43.0569 22.2705 43.2265 21.9283C43.3961 21.5862 43.6289 21.3223 43.9247 21.1367C44.2204 20.9511 44.5583 20.8583 44.9382 20.8583C45.3181 20.8583 45.6559 20.9511 45.9517 21.1367C46.2475 21.3223 46.4802 21.5862 46.6499 21.9283C46.8195 22.2705 46.9043 22.6765 46.9043 23.1463ZM46.3823 23.1463C46.3823 22.7606 46.3178 22.4351 46.1888 22.1698C46.0612 21.9044 45.8879 21.7036 45.669 21.5673C45.4515 21.431 45.2079 21.3629 44.9382 21.3629C44.6685 21.3629 44.4242 21.431 44.2052 21.5673C43.9877 21.7036 43.8145 21.9044 43.6854 22.1698C43.5578 22.4351 43.494 22.7606 43.494 23.1463C43.494 23.532 43.5578 23.8575 43.6854 24.1229C43.8145 24.3882 43.9877 24.589 44.2052 24.7253C44.4242 24.8616 44.6685 24.9298 44.9382 24.9298C45.2079 24.9298 45.4515 24.8616 45.669 24.7253C45.8879 24.589 46.0612 24.3882 46.1888 24.1229C46.3178 23.8575 46.3823 23.532 46.3823 23.1463Z" fill="#181818"/>
<path d="M50.6899 25.3735V20.9192H52.1949C52.5429 20.9192 52.8286 20.9786 53.0518 21.0975C53.2751 21.215 53.4404 21.3766 53.5477 21.5825C53.655 21.7884 53.7087 22.0226 53.7087 22.285C53.7087 22.5475 53.655 22.7802 53.5477 22.9832C53.4404 23.1862 53.2759 23.3457 53.054 23.4617C52.8322 23.5762 52.5487 23.6335 52.2036 23.6335H50.9857V23.1463H52.1862C52.424 23.1463 52.6154 23.1115 52.7604 23.0419C52.9069 22.9723 53.0127 22.8737 53.0779 22.7461C53.1446 22.6171 53.178 22.4634 53.178 22.285C53.178 22.1067 53.1446 21.9508 53.0779 21.8174C53.0112 21.684 52.9047 21.5811 52.7582 21.5086C52.6118 21.4346 52.4182 21.3977 52.1775 21.3977H51.2292V25.3735H50.6899ZM52.7865 23.3725L53.8827 25.3735H53.2563L52.1775 23.3725H52.7865Z" fill="#181818"/>
<path d="M57.4861 25.3735V20.9192H58.0254V24.895H60.096V25.3735H57.4861Z" fill="#181818"/>
<path d="M65.1843 25.3735H63.8097V20.9192H65.2452C65.6773 20.9192 66.047 21.0083 66.3544 21.1867C66.6618 21.3636 66.8974 21.6181 67.0613 21.9501C67.2251 22.2807 67.3071 22.6765 67.3071 23.1376C67.3071 23.6016 67.2244 24.0011 67.0591 24.336C66.8938 24.6695 66.6531 24.9261 66.337 25.1059C66.0209 25.2843 65.6367 25.3735 65.1843 25.3735ZM64.3491 24.895H65.1495C65.5178 24.895 65.823 24.8239 66.0652 24.6818C66.3073 24.5397 66.4878 24.3375 66.6067 24.075C66.7256 23.8126 66.7851 23.5001 66.7851 23.1376C66.7851 22.778 66.7263 22.4685 66.6089 22.2089C66.4915 21.9479 66.316 21.7478 66.0826 21.6086C65.8491 21.468 65.5584 21.3977 65.2104 21.3977H64.3491V24.895Z" fill="#181818"/>
</svg>
