<svg width="23" height="23" viewBox="0 0 23 23" fill="none" xmlns="http://www.w3.org/2000/svg">
<path d="M12.4596 21.0834H8.6263C8.37214 21.0834 8.12838 20.9824 7.94866 20.8027C7.76894 20.623 7.66797 20.3792 7.66797 20.1251V14.1834H5.7513C5.49714 14.1834 5.25338 14.0824 5.07366 13.9027C4.89394 13.723 4.79297 13.4792 4.79297 13.2251V9.77508C4.79297 9.52091 4.89394 9.27716 5.07366 9.09743C5.25338 8.91771 5.49714 8.81675 5.7513 8.81675H7.66797V7.18758C7.73514 5.72742 8.37773 4.35325 9.45523 3.36554C10.5327 2.37783 11.9575 1.85694 13.418 1.91675H16.293C16.5471 1.91675 16.7909 2.01771 16.9706 2.19743C17.1503 2.37716 17.2513 2.62091 17.2513 2.87508V6.32508C17.2513 6.57924 17.1503 6.823 16.9706 7.00272C16.7909 7.18245 16.5471 7.28341 16.293 7.28341H13.418V8.81675H16.293C16.4409 8.81562 16.5872 8.84879 16.7202 8.91363C16.8532 8.97847 16.9694 9.07324 17.0596 9.1905C17.1489 9.30952 17.2092 9.44769 17.2358 9.59406C17.2625 9.74044 17.2546 9.891 17.213 10.0338L16.2546 13.4838C16.1967 13.6911 16.0706 13.8729 15.8968 13.9998C15.7229 14.1267 15.5114 14.1914 15.2963 14.1834H13.418V20.1251C13.418 20.3792 13.317 20.623 13.1373 20.8027C12.9576 20.9824 12.7138 21.0834 12.4596 21.0834ZM9.58464 19.1667H11.5013V13.2251C11.5013 12.9709 11.6023 12.7272 11.782 12.5474C11.9617 12.3677 12.2055 12.2667 12.4596 12.2667H14.6063L15.028 10.7334H12.4596C12.2055 10.7334 11.9617 10.6324 11.782 10.4527C11.6023 10.273 11.5013 10.0292 11.5013 9.77508V7.18758C11.5259 6.69604 11.7387 6.2328 12.0955 5.89383C12.4523 5.55486 12.9258 5.36613 13.418 5.36675H15.3346V3.83341H13.418C12.4662 3.77542 11.5299 4.09507 10.8122 4.723C10.0946 5.35093 9.65351 6.2365 9.58464 7.18758V9.77508C9.58464 10.0292 9.48367 10.273 9.30395 10.4527C9.12422 10.6324 8.88047 10.7334 8.6263 10.7334H6.70964V12.2667H8.6263C8.88047 12.2667 9.12422 12.3677 9.30395 12.5474C9.48367 12.7272 9.58464 12.9709 9.58464 13.2251V19.1667Z" fill="#181818"/>
</svg>
