<svg width="23" height="23" viewBox="0 0 23 23" fill="none" xmlns="http://www.w3.org/2000/svg">
<path d="M7.47435 1.91797H15.5243C18.591 1.91797 21.0827 4.40964 21.0827 7.4763V15.5263C21.0827 17.0005 20.4971 18.4142 19.4547 19.4566C18.4123 20.499 16.9985 21.0846 15.5243 21.0846H7.47435C4.40768 21.0846 1.91602 18.593 1.91602 15.5263V7.4763C1.91602 6.00214 2.50162 4.58836 3.54401 3.54597C4.5864 2.50358 6.00019 1.91797 7.47435 1.91797ZM7.28268 3.83464C6.36769 3.83464 5.49016 4.19812 4.84316 4.84512C4.19616 5.49212 3.83268 6.36964 3.83268 7.28464V15.718C3.83268 17.6251 5.3756 19.168 7.28268 19.168H15.716C16.631 19.168 17.5085 18.8045 18.1555 18.1575C18.8025 17.5105 19.166 16.633 19.166 15.718V7.28464C19.166 5.37755 17.6231 3.83464 15.716 3.83464H7.28268ZM16.5306 5.27214C16.8483 5.27214 17.153 5.39834 17.3777 5.623C17.6023 5.84765 17.7285 6.15234 17.7285 6.47005C17.7285 6.78776 17.6023 7.09245 17.3777 7.31711C17.153 7.54176 16.8483 7.66797 16.5306 7.66797C16.2129 7.66797 15.9082 7.54176 15.6835 7.31711C15.4589 7.09245 15.3327 6.78776 15.3327 6.47005C15.3327 6.15234 15.4589 5.84765 15.6835 5.623C15.9082 5.39834 16.2129 5.27214 16.5306 5.27214ZM11.4993 6.70964C12.7702 6.70964 13.989 7.21447 14.8876 8.11308C15.7862 9.01169 16.291 10.2305 16.291 11.5013C16.291 12.7721 15.7862 13.9909 14.8876 14.8895C13.989 15.7881 12.7702 16.293 11.4993 16.293C10.2285 16.293 9.00974 15.7881 8.11113 14.8895C7.21252 13.9909 6.70768 12.7721 6.70768 11.5013C6.70768 10.2305 7.21252 9.01169 8.11113 8.11308C9.00974 7.21447 10.2285 6.70964 11.4993 6.70964ZM11.4993 8.6263C10.7369 8.6263 10.0056 8.9292 9.46642 9.46837C8.92725 10.0075 8.62435 10.7388 8.62435 11.5013C8.62435 12.2638 8.92725 12.9951 9.46642 13.5342C10.0056 14.0734 10.7369 14.3763 11.4993 14.3763C12.2618 14.3763 12.9931 14.0734 13.5323 13.5342C14.0714 12.9951 14.3743 12.2638 14.3743 11.5013C14.3743 10.7388 14.0714 10.0075 13.5323 9.46837C12.9931 8.9292 12.2618 8.6263 11.4993 8.6263Z" fill="#181818"/>
</svg>
