<svg width="23" height="23" viewBox="0 0 23 23" fill="none" xmlns="http://www.w3.org/2000/svg">
<path d="M19.0401 2.51562H3.95986C3.1625 2.51562 2.51562 3.1625 2.51562 3.95986V19.0401C2.51562 19.8375 3.1625 20.4844 3.95986 20.4844H19.0401C19.8375 20.4844 20.4844 19.8375 20.4844 19.0401V3.95986C20.4844 3.1625 19.8375 2.51562 19.0401 2.51562ZM19.0401 19.0469C8.98213 19.0446 3.95312 19.0424 3.95312 19.0401C3.95537 8.98213 3.95762 3.95312 3.95986 3.95312C14.0179 3.95537 19.0469 3.95762 19.0469 3.95986C19.0446 14.0179 19.0424 19.0469 19.0401 19.0469ZM5.17949 9.25166H7.84561V17.8272H5.17949V9.25166ZM6.51367 8.0792C7.36494 8.0792 8.05898 7.3874 8.05898 6.53389C8.05898 6.33095 8.01901 6.13001 7.94135 5.94252C7.8637 5.75504 7.74987 5.58468 7.60637 5.44119C7.46288 5.29769 7.29252 5.18386 7.10504 5.1062C6.91755 5.02854 6.71661 4.98857 6.51367 4.98857C6.31074 4.98857 6.10979 5.02854 5.92231 5.1062C5.73482 5.18386 5.56447 5.29769 5.42097 5.44119C5.27748 5.58468 5.16365 5.75504 5.08599 5.94252C5.00833 6.13001 4.96836 6.33095 4.96836 6.53389C4.96611 7.3874 5.65791 8.0792 6.51367 8.0792ZM12.1806 13.5844C12.1806 12.4658 12.3939 11.3832 13.7798 11.3832C15.1454 11.3832 15.1656 12.6612 15.1656 13.6562V17.8272H17.8295V13.1239C17.8295 10.8149 17.3309 9.03828 14.6333 9.03828C13.3373 9.03828 12.4681 9.75029 12.1109 10.4241H12.075V9.25166H9.5167V17.8272H12.1806V13.5844Z" fill="#181818"/>
</svg>
