<svg width="1280" height="512" viewBox="0 0 1280 512" fill="none" xmlns="http://www.w3.org/2000/svg">
<g clip-path="url(#clip0_1155_2854)">
<mask id="mask0_1155_2854" style="mask-type:luminance" maskUnits="userSpaceOnUse" x="0" y="0" width="1280" height="512">
<path d="M1279.74 0H0V511.729H1279.74V0Z" fill="white"/>
</mask>
<g mask="url(#mask0_1155_2854)">
<path fill-rule="evenodd" clip-rule="evenodd" d="M635.721 175.738C618.951 186.155 593.955 214.821 593.955 214.821C590.566 202.663 586.914 190.881 578.178 184.784C571.109 181.068 562.132 178.136 553.781 175.832C554.277 169.042 554.146 161.737 554.188 156.862C556.675 156.052 564.557 152.23 566.686 151.836C564.44 177.638 637.209 177.16 637.981 151.536C642.666 152.567 654.495 157.963 658.498 161.019C657.038 164.409 656.183 166.021 652.18 167.99C649.149 169.478 644.533 171.716 635.721 175.738Z" fill="#181818" stroke="#181818" stroke-width="2.07842" stroke-miterlimit="1.5" stroke-linecap="round" stroke-linejoin="round"/>
<path d="M574.438 107.336C574.438 107.336 578.018 133.229 587.415 142.727C589.781 145.118 615.022 145.347 617.111 142.708C624.397 133.502 628.752 121.052 629.636 108.799" stroke="#181818" stroke-width="2.06467" stroke-miterlimit="1.5" stroke-linecap="round" stroke-linejoin="round"/>
<path fill-rule="evenodd" clip-rule="evenodd" d="M574.677 100.506C574.677 100.506 575.075 98.272 570.864 95.4586C571.019 82.9852 571.427 54.7653 613.648 59.5576C613.941 63.2456 614.464 63.9573 614.464 63.9573C614.464 63.9573 635.251 65.668 634.504 92.4775C634.39 96.5245 630.468 96.9885 629.948 102.473C620.435 76.7368 620.164 74.8282 620.164 74.8282C620.164 74.8282 607.556 84.7366 585.68 75.6502C581.769 86.6192 574.677 100.506 574.677 100.506Z" stroke="#181818" stroke-width="2.07757" stroke-miterlimit="1.5" stroke-linecap="round" stroke-linejoin="round"/>
<path d="M595.122 108.84C595.122 108.84 593.642 114.233 599.871 114.48C606.112 114.727 610.932 112.787 607.356 108.549" stroke="#181818" stroke-width="2.07757" stroke-miterlimit="1.5" stroke-linecap="round" stroke-linejoin="round"/>
<path fill-rule="evenodd" clip-rule="evenodd" d="M593.941 123.431L610.964 123.331C610.964 123.331 608.274 128.605 602.239 128.335C596.205 128.065 593.941 123.431 593.941 123.431Z" stroke="#181818" stroke-width="2.07757" stroke-miterlimit="1.5" stroke-linecap="round" stroke-linejoin="round"/>
<path d="M583.294 94.9806C583.294 94.9806 588.499 90.9235 595.359 92.8462" stroke="#181818" stroke-width="2.07757" stroke-miterlimit="1.5" stroke-linecap="round" stroke-linejoin="round"/>
<path d="M590.205 97.2148L590.16 99.5106" stroke="#181818" stroke-width="2.07757" stroke-miterlimit="1.5" stroke-linecap="round" stroke-linejoin="round"/>
<path d="M620.522 95.714C620.522 95.714 615.482 91.4552 608.551 93.1065" stroke="#181818" stroke-width="2.07757" stroke-miterlimit="1.5" stroke-linecap="round" stroke-linejoin="round"/>
<path d="M613.529 97.6748L613.484 99.9706" stroke="#181818" stroke-width="2.07757" stroke-miterlimit="1.5" stroke-linecap="round" stroke-linejoin="round"/>
<path d="M634.086 94.2959C634.086 94.2959 637.098 102.117 634.388 108.193" stroke="#181818" stroke-width="2.02203" stroke-miterlimit="1.5" stroke-linecap="round" stroke-linejoin="round"/>
<path d="M571.031 95.333C571.031 95.333 567.719 103.029 570.177 109.207" stroke="#181818" stroke-width="2.02203" stroke-miterlimit="1.5" stroke-linecap="round" stroke-linejoin="round"/>
<path d="M623.813 142.194C629.91 144.384 637.753 155.285 621.667 160.43C610.975 163.849 589.663 163.476 580.255 159.764C571.276 156.224 569.508 146.252 581.259 142.284" stroke="#181818" stroke-width="2.05939" stroke-miterlimit="1.5" stroke-linecap="round" stroke-linejoin="round"/>
<path fill-rule="evenodd" clip-rule="evenodd" d="M1073.81 153.431C1073.81 153.431 1068.43 152.488 1062.33 138.969C1056.24 125.45 1057.02 102.803 1057.02 102.803L1101.31 98.5211L1111.26 156.029C1111.26 156.029 1131.9 152.391 1140.25 143.099C1139.1 141.632 1135.05 133.381 1135.43 125.945C1129.48 124.787 1129.12 117.341 1128.99 115.864C1128.45 109.612 1128.1 93.4793 1127.99 86.4775C1120.07 72.9774 1108.67 61.6422 1092.72 60.3994C1054.95 57.4542 1034.46 104.515 1033.77 135.488C1033.1 166.461 1074.09 164.324 1074.09 164.324L1073.81 153.431Z" fill="#008CFB" stroke="#008CFB" stroke-width="2.07425" stroke-miterlimit="1.5" stroke-linecap="round" stroke-linejoin="round"/>
<path d="M1100.98 75.3789C1100.98 75.3789 1116.59 106.782 1119.15 147.393" stroke="#181818" stroke-width="2.08" stroke-miterlimit="1.5" stroke-linecap="round" stroke-linejoin="round"/>
<path d="M1030.15 190.564C1050.68 173.343 1074.62 170.016 1074.62 170.016L1074.15 153.623" stroke="#181818" stroke-width="2.07425" stroke-miterlimit="1.5" stroke-linecap="round" stroke-linejoin="round"/>
<path d="M1112.04 162.24L1112.71 166.319L1121.18 169.402" stroke="#181818" stroke-width="2.07425" stroke-miterlimit="1.5" stroke-linecap="round" stroke-linejoin="round"/>
<path d="M1082.82 199.456C1068.73 198.359 1056.25 193.545 1045.26 180.434" stroke="#181818" stroke-width="2.07425" stroke-miterlimit="1.5" stroke-linecap="round" stroke-linejoin="round"/>
<path d="M1057.76 103.514C1056.61 138.389 1067.28 147.447 1072.76 152.387C1078.13 157.226 1102.81 158.294 1107.16 135.158" stroke="#181818" stroke-width="2.07425" stroke-miterlimit="1.5" stroke-linecap="round" stroke-linejoin="round"/>
<path d="M1076.52 126.977C1076.52 126.977 1075.46 133.882 1080.01 131.414" stroke="#181818" stroke-width="2.07425" stroke-miterlimit="1.5" stroke-linecap="round" stroke-linejoin="round"/>
<path d="M1089.58 141.377C1086.92 144.615 1082.5 145.745 1077.44 143.157" stroke="#181818" stroke-width="2.07425" stroke-miterlimit="1.5" stroke-linecap="round" stroke-linejoin="round"/>
<path d="M1064.56 116.002C1064.56 116.002 1067.66 112.577 1071.85 114.425" stroke="#181818" stroke-width="2.07425" stroke-miterlimit="1.5" stroke-linecap="round" stroke-linejoin="round"/>
<path d="M1085.12 112.609C1085.12 112.609 1086.75 109.197 1092.77 112.233" stroke="#181818" stroke-width="2.07425" stroke-miterlimit="1.5" stroke-linecap="round" stroke-linejoin="round"/>
<path fill-rule="evenodd" clip-rule="evenodd" d="M895.982 128.585C888.755 128.5 866.354 147.075 911.168 148.585C955.989 150.095 949.693 132.851 933.398 129.598C932.607 128.591 931.983 127.401 931.13 125.702C941.469 125.532 950.705 129.365 954.478 131.178C954.471 132.783 955.191 136.311 955.191 136.311C955.191 136.311 954.622 138.818 960.241 141.3C961.727 159.878 969.15 166.297 969.15 166.297L926.274 202.396C926.274 202.396 924.269 196.075 923.754 194.956C917.852 182.282 886.781 177.665 872.652 175.982C858.522 174.299 858.905 164.327 858.334 157.582C857.949 145.586 859.841 138.303 861.502 133.515C865.803 128.748 887.728 126.318 897.213 124.818C896.931 125.813 896.505 127.059 895.982 128.585Z" fill="#181818" stroke="#181818" stroke-width="2.08" stroke-miterlimit="1.5" stroke-linecap="round" stroke-linejoin="round"/>
<path d="M1215.28 649.042L1208.52 379.3" stroke="#181818" stroke-width="2.08016" stroke-miterlimit="1.5" stroke-linecap="round" stroke-linejoin="round"/>
<path d="M1138.8 611.808L1166.39 403.023" stroke="#181818" stroke-width="2.08016" stroke-miterlimit="1.5" stroke-linecap="round" stroke-linejoin="round"/>
<path d="M1088.23 340.528L1103.25 380.874L1100.72 408.387L1107.82 425.411" stroke="#181818" stroke-width="2.08016" stroke-miterlimit="1.5" stroke-linecap="round" stroke-linejoin="round"/>
<path d="M1116.44 412.021L1120.8 433.981" stroke="#181818" stroke-width="2.08016" stroke-miterlimit="1.5" stroke-linecap="round" stroke-linejoin="round"/>
<path d="M1123.87 411.181L1127.48 433.662" stroke="#181818" stroke-width="2.08016" stroke-miterlimit="1.5" stroke-linecap="round" stroke-linejoin="round"/>
<path d="M1138.15 415.206C1138.15 415.206 1117.35 364.513 1108.9 315.975" stroke="#181818" stroke-width="2.08016" stroke-miterlimit="1.5" stroke-linecap="round" stroke-linejoin="round"/>
<path d="M1077.34 317.904L1082.32 324.652L1108.96 315.903C1108.96 315.903 1111.5 303.414 1105.54 298.844C1113.28 267.578 1124.83 230.488 1124.83 230.488" stroke="#181818" stroke-width="2.08016" stroke-miterlimit="1.5" stroke-linecap="round" stroke-linejoin="round"/>
<path d="M1073.62 255.255C1073.62 255.255 1055.99 192.937 1128.63 166.466C1138.36 172.042 1177.22 197.092 1177.22 197.092L1183.2 186.035" stroke="#181818" stroke-width="2.08016" stroke-miterlimit="1.5" stroke-linecap="round" stroke-linejoin="round"/>
<path d="M1175.95 164.488C1175.95 164.488 1181.71 317.94 1183.44 334.064" stroke="#181818" stroke-width="2.08016" stroke-miterlimit="1.5" stroke-linecap="round" stroke-linejoin="round"/>
<path d="M1180.53 171.793C1180.53 171.793 1214.34 192.629 1213.59 208.469C1212.83 224.297 1212.23 245.737 1212.23 245.737L1209.57 338.729C1209.57 338.729 1214.7 359.517 1207.33 373.344" stroke="#181818" stroke-width="2.08016" stroke-miterlimit="1.5" stroke-linecap="round" stroke-linejoin="round"/>
<path d="M1207.32 373.347L1173.8 364.582L1128.88 372.198" stroke="#181818" stroke-width="2.08" stroke-miterlimit="1.5" stroke-linecap="round" stroke-linejoin="round"/>
<path d="M1212.54 246.104C1212.54 246.104 1222.57 282.827 1226.57 299.46C1232.75 303.959 1232.69 312.281 1229.71 316.128C1215.61 315.797 1210.58 315.785 1210.58 315.785" stroke="#181818" stroke-width="2.08016" stroke-miterlimit="1.5" stroke-linecap="round" stroke-linejoin="round"/>
<path d="M1228.75 316.732L1253.74 392.748L1248.35 413.655L1231.58 422.415L1231.62 415.774L1240.7 410.198L1242.72 395.494L1238.16 394.228C1238.16 394.228 1236.77 405.688 1230.17 405.995C1228.77 400.159 1227.44 391.043 1227.59 383.194C1227.71 377.358 1228.65 372.22 1230.99 369.687C1221.62 350.851 1217.38 344.198 1217.38 344.198" stroke="#181818" stroke-width="2.08016" stroke-miterlimit="1.5" stroke-linecap="round" stroke-linejoin="round"/>
<path d="M1234.83 413.288L1233.79 404.35" stroke="#181818" stroke-width="2.08016" stroke-miterlimit="1.5" stroke-linecap="round" stroke-linejoin="round"/>
<path d="M1127.82 181.975L1142.07 192.89L1166.98 190.676" stroke="#181818" stroke-width="2.08016" stroke-miterlimit="1.5" stroke-linecap="round" stroke-linejoin="round"/>
<path fill-rule="evenodd" clip-rule="evenodd" d="M1151.08 73.6278C1151.01 66.2642 1124.86 70.6208 1127.25 97.2931C1127.72 102.691 1129.43 119.017 1129.43 119.017L1137.96 120.059C1137.96 120.059 1144.06 102.928 1141.33 99.7317C1138.6 96.5472 1136.7 92.972 1136.7 92.972C1136.7 92.972 1173.83 102.052 1195.48 96.7367C1197.38 92.3091 1197.49 88.568 1189.76 85.9872C1193.38 84.8507 1191.43 76.0547 1181.16 76.3861C1184.07 71.0469 1171.58 67.4244 1166.35 71.2838C1165.56 64.9738 1155.21 65.9683 1151.08 73.6278Z" fill="#181818" stroke="#181818" stroke-width="2.08016" stroke-miterlimit="1.5" stroke-linecap="round" stroke-linejoin="round"/>
<path d="M1158.42 144.419C1163.6 147.335 1168.54 146.395 1172.88 143.822" stroke="#181818" stroke-width="2.08" stroke-miterlimit="1.5" stroke-linecap="round" stroke-linejoin="round"/>
<path d="M1136.24 115.939C1136.24 115.939 1132.7 132.394 1140.88 143.913C1149.05 155.444 1152.04 157.622 1157.32 160.369C1161.8 162.701 1168.34 163.257 1172.49 160.38C1177.37 157.03 1185.83 146.873 1186.58 140.219C1187.31 133.566 1187.02 103.875 1187.02 103.875" stroke="#181818" stroke-width="2.08016" stroke-miterlimit="1.5" stroke-linecap="round" stroke-linejoin="round"/>
<path d="M1154.46 112.733V116.255" stroke="#181818" stroke-width="2.08008" stroke-miterlimit="1.5" stroke-linecap="round" stroke-linejoin="round"/>
<path d="M1174.97 112.889L1174.96 116.433" stroke="#181818" stroke-width="2.08832" stroke-miterlimit="1.5" stroke-linecap="round" stroke-linejoin="round"/>
<path d="M1181.02 109.947C1181.02 109.947 1176.37 107.724 1171.21 108.715" stroke="#181818" stroke-width="2.07923" stroke-miterlimit="1.5" stroke-linecap="round" stroke-linejoin="round"/>
<path d="M1149.51 109.946C1149.51 109.946 1154.16 107.723 1159.32 108.714" stroke="#181818" stroke-width="2.07923" stroke-miterlimit="1.5" stroke-linecap="round" stroke-linejoin="round"/>
<path d="M1166.54 118.958C1166.54 118.958 1168.38 127.061 1170.32 129.654C1172.25 132.247 1163.84 136.476 1160.25 131.05" stroke="#181818" stroke-width="2.08414" stroke-miterlimit="1.5" stroke-linecap="round" stroke-linejoin="round"/>
<path d="M1187.52 123.784C1187.52 123.784 1192.83 121.807 1192.58 108.607" stroke="#181818" stroke-width="2.08016" stroke-miterlimit="1.5" stroke-linecap="round" stroke-linejoin="round"/>
<path fill-rule="evenodd" clip-rule="evenodd" d="M965.93 198.027C965.93 198.027 968.803 177.44 969.405 166.217C967.084 163.659 966.36 161.333 965.108 160.611C949.638 163.451 939.104 169.154 940.074 177.881C951.725 187.966 960.823 192.874 965.93 198.027Z" fill="#008CFB" stroke="#008CFB" stroke-width="2.09084" stroke-miterlimit="1.5" stroke-linecap="round" stroke-linejoin="round"/>
<path fill-rule="evenodd" clip-rule="evenodd" d="M1010.69 196.925C1021.22 198.222 1028.31 186.803 1031.22 179.827C1035.26 170.158 1026.03 163.891 1012.08 160.782C1011.47 161.823 1010.61 163.402 1009.12 165.201C1008.79 175.641 1010.69 196.925 1010.69 196.925Z" fill="#008CFB" stroke="#008CFB" stroke-width="2.09084" stroke-miterlimit="1.5" stroke-linecap="round" stroke-linejoin="round"/>
<path d="M966.902 616.156L987.21 487.148" stroke="#181818" stroke-width="2.05969" stroke-miterlimit="1.5" stroke-linecap="round" stroke-linejoin="round"/>
<path d="M1063.47 617.95L1049.07 402.476L917.192 401.737L910.746 616.934" stroke="#181818" stroke-width="2.06079" stroke-miterlimit="1.5" stroke-linecap="round" stroke-linejoin="round"/>
<path d="M969.424 166.03C970.075 185.882 965.704 200.851 960.031 219.932C973.782 234.362 993.046 233.273 1016.73 219.773C1009.9 203.213 1008.33 185.307 1008.83 165.896" stroke="#181818" stroke-width="2.09084" stroke-miterlimit="1.5" stroke-linecap="round" stroke-linejoin="round"/>
<path fill-rule="evenodd" clip-rule="evenodd" d="M916.762 401.04L953.631 205.382C984.166 220.326 994.258 220.865 1021.7 204.733L1049.67 402.68C1003.72 412.802 959.328 412.386 916.762 401.04Z" fill="#181818" stroke="#181818" stroke-width="2.09084" stroke-miterlimit="1.5" stroke-linecap="round" stroke-linejoin="round"/>
<path fill-rule="evenodd" clip-rule="evenodd" d="M897.498 432.972L955.989 427.917L967.922 231.647C967.922 231.647 979.181 184.978 940.163 177.659C927.971 183.179 937.02 192.334 937.02 192.334C937.02 192.334 931.188 190.963 922.95 193.632C927.161 200.681 930.734 221.011 929.334 243.531C928.72 253.604 926.228 283.578 919.45 298.302C916.504 307.653 908.928 310.089 908.928 310.089L907.394 397.135L897.203 397.771L897.498 432.972Z" fill="#008CFB" stroke="#008CFB" stroke-width="2.09084" stroke-miterlimit="1.5" stroke-linecap="round" stroke-linejoin="round"/>
<path d="M929.297 188.504C929.297 188.504 948.094 195.125 951.765 212.664" stroke="#F5F5F5" stroke-width="2.09084" stroke-miterlimit="1.5" stroke-linecap="round" stroke-linejoin="round"/>
<path d="M940.728 171.005C931.581 182.963 963.798 178.997 970.219 206.756" stroke="#F5F5F5" stroke-width="2.09084" stroke-miterlimit="1.5" stroke-linecap="round" stroke-linejoin="round"/>
<path fill-rule="evenodd" clip-rule="evenodd" d="M1064.27 437.573L1014.41 431.258L1001.55 241.744C1001.55 241.744 997.674 197.474 1031.04 179.237C1037.26 182.346 1029.84 192.015 1036.9 192.945C1068.9 197.18 1087.2 273.664 1087.85 290.321C1089.41 330.834 1064.26 404.38 1064.26 404.38L1064.27 437.573Z" fill="#008CFB" stroke="#008CFB" stroke-width="2.09084" stroke-miterlimit="1.5" stroke-linecap="round" stroke-linejoin="round"/>
<path d="M1069.83 404.544C1069.83 404.544 1051.17 400.768 1044.11 381.174C1043.93 380.698 1040.53 383.701 1038.15 385.942C1037.77 386.304 1042.86 410.827 1069.78 412.105" stroke="#181818" stroke-width="1.99358" stroke-miterlimit="1.5" stroke-linecap="round" stroke-linejoin="round"/>
<path d="M1044.82 190.938C1044.82 190.938 1022.46 196.618 1018.83 216.372" stroke="#F5F5F5" stroke-width="2.09084" stroke-miterlimit="1.5" stroke-linecap="round" stroke-linejoin="round"/>
<path d="M1016.24 160.538C1028.09 163.647 1031.72 169.727 1031.72 169.727C1039.71 182.063 1011.28 186.803 1005.39 207.999" stroke="#F5F5F5" stroke-width="2.06115" stroke-miterlimit="1.5" stroke-linecap="round" stroke-linejoin="round"/>
<path d="M1045.45 256.499L1060.68 308.874L1049.51 380.112" stroke="#F5F5F5" stroke-width="2.10498" stroke-miterlimit="1.5" stroke-linecap="round" stroke-linejoin="round"/>
<path d="M954.874 126.588C954.399 128.147 954.709 130.45 954.973 133.955C955.481 140.775 958.982 139.661 960.328 141.523C961.044 144.46 961.74 149.512 963.199 154.912C964.682 160.392 970.527 168.443 975.463 173.205C979.991 177.571 995.549 177.239 999.841 174.049C1005.62 169.746 1011.05 163.379 1013.33 157.706C1015.88 151.373 1016.76 145.024 1016.79 141.258C1022.07 137.581 1024.12 137.329 1024.04 130.311C1024.03 129.391 1023.85 127.954 1023.38 127.311" stroke="#181818" stroke-width="2.08049" stroke-miterlimit="1.5" stroke-linecap="round" stroke-linejoin="round"/>
<path d="M992.715 130.445C992.715 130.445 992.136 140.987 995.217 144.822C998.31 148.645 984.969 149.773 983.926 145.687" stroke="#181818" stroke-width="2.08008" stroke-miterlimit="1.5" stroke-linecap="round" stroke-linejoin="round"/>
<path d="M998.046 155.113C992.01 160.553 986.277 160.052 980.77 155.477" stroke="#181818" stroke-width="2.08008" stroke-miterlimit="1.5" stroke-linecap="round" stroke-linejoin="round"/>
<path d="M975.615 127.751V131.273" stroke="#181818" stroke-width="2.08008" stroke-miterlimit="1.5" stroke-linecap="round" stroke-linejoin="round"/>
<path d="M1002.28 127.918L1002.28 131.462" stroke="#181818" stroke-width="2.08833" stroke-miterlimit="1.5" stroke-linecap="round" stroke-linejoin="round"/>
<path d="M1008.34 124.982C1008.34 124.982 1003.69 122.759 998.528 123.749" stroke="#181818" stroke-width="2.07924" stroke-miterlimit="1.5" stroke-linecap="round" stroke-linejoin="round"/>
<path d="M970.661 124.982C970.661 124.982 975.313 122.759 980.472 123.749" stroke="#181818" stroke-width="2.07924" stroke-miterlimit="1.5" stroke-linecap="round" stroke-linejoin="round"/>
<path d="M1020.4 96.6457C1018.59 92.6105 1023.16 91.4921 1013.88 88.4599C1001.62 84.4477 1006.56 79.5361 999.407 80.6776C992.253 81.819 984.322 69.9207 981.101 75.7315C975.347 86.1195 968.091 83.4447 960.605 90.1433C954.138 95.931 952.368 103.494 952.19 109.662C951.974 116.857 954.634 126.645 954.634 126.645C959.141 125.123 962.706 127.891 964.195 131.914C967.212 126.184 968.18 118.333 966.983 108.267C975.831 102.849 982.998 100.681 986.995 104.935C992.762 111.069 1006.7 105.212 1013.36 108.233C1012.9 117.791 1012.94 124.57 1014.98 131.522C1016.71 128.213 1019.1 125.55 1023.6 127.36C1023.6 127.36 1030.22 110.124 1022.4 100.842C1021.84 100.174 1012.75 98.3406 1001.75 89.0594C996.288 84.4477 995.537 91.4575 984.615 88.8634" stroke="#181818" stroke-width="2.08606" stroke-miterlimit="1.5" stroke-linecap="round" stroke-linejoin="round"/>
<path fill-rule="evenodd" clip-rule="evenodd" d="M550.946 313.334C550.946 313.334 576.133 340.511 572.817 459.294C539.034 461.792 433.264 462.845 433.264 462.845C430.955 408.209 431.336 356.34 457.702 315.244L550.946 313.334Z" fill="#181818" stroke="#181818" stroke-width="2.09129" stroke-miterlimit="1.5" stroke-linecap="round" stroke-linejoin="round"/>
<path fill-rule="evenodd" clip-rule="evenodd" d="M553.024 297.534L550.457 313.803L458.49 314.734L458.515 307.425C458.515 307.425 463.795 309.042 463.906 305.21C469.862 306.446 473.644 303.9 471.937 302.076C472.748 301.721 474.27 304.206 476.8 302.982C477.279 302.492 478.372 301.745 477.881 300.864C487.57 300.619 504.467 299.713 517.092 289.724C526.572 292.968 553.024 297.534 553.024 297.534Z" fill="#008CFB" stroke="#008CFB" stroke-width="2.09129" stroke-miterlimit="1.5" stroke-linecap="round" stroke-linejoin="round"/>
<path d="M522.998 460.548L527.898 512.356L571.984 621.897" stroke="#181818" stroke-width="2.09129" stroke-miterlimit="1.5" stroke-linecap="round" stroke-linejoin="round"/>
<path d="M572.365 457.671L573.863 503.187L601.15 610.659" stroke="#181818" stroke-width="2.09129" stroke-miterlimit="1.5" stroke-linecap="round" stroke-linejoin="round"/>
<path d="M490.025 461.087L483.025 532.421L492.776 610.194" stroke="#181818" stroke-width="2.09129" stroke-miterlimit="1.5" stroke-linecap="round" stroke-linejoin="round"/>
<path d="M447.315 492.793L444.945 537.88L458.417 605.113" stroke="#181818" stroke-width="2.09129" stroke-miterlimit="1.5" stroke-linecap="round" stroke-linejoin="round"/>
<path d="M444.895 280.824L464.04 279.992C464.04 279.992 483.136 273.418 490.897 271.386C498.671 269.366 521.708 269.55 532.245 273.087C542.781 276.625 579.094 279.955 601.137 276.38C600.056 243.18 595.857 194.641 579.61 185.472C568.668 179.302 553.256 175.482 553.256 175.482L499.579 234.807L479.108 186.574C479.108 186.574 459.484 195.584 454.67 204.435C449.009 214.828 444.981 235.431 445.19 248.934C445.399 262.449 442.955 286.064 442.955 286.064" stroke="#181818" stroke-width="2.09129" stroke-miterlimit="1.5" stroke-linecap="round" stroke-linejoin="round"/>
<path d="M562.012 232.04L555.848 275.548" stroke="#181818" stroke-width="2.09129" stroke-miterlimit="1.5" stroke-linecap="round" stroke-linejoin="round"/>
<path d="M600.696 275.915L598.178 302.872C598.178 302.872 583.516 306.214 565.832 303.129" stroke="#181818" stroke-width="2.09129" stroke-miterlimit="1.5" stroke-linecap="round" stroke-linejoin="round"/>
<path d="M470.475 233.962C470.475 233.962 456.857 250.023 459.89 261.555C462.923 273.087 466.976 278.302 466.976 278.302" stroke="#181818" stroke-width="2.09129" stroke-miterlimit="1.5" stroke-linecap="round" stroke-linejoin="round"/>
<path d="M462.801 280.628C462.801 280.628 470.857 284.668 469.777 287.104C465.454 287.753 458.012 287.875 457.447 286.871" stroke="#181818" stroke-width="2.09129" stroke-miterlimit="1.5" stroke-linecap="round" stroke-linejoin="round"/>
<path d="M461.389 288.145C461.389 288.145 466.878 292.686 472.748 295.208C475.978 296.591 477.721 298.795 477.709 300.827" stroke="#181818" stroke-width="2.09129" stroke-miterlimit="1.5" stroke-linecap="round" stroke-linejoin="round"/>
<path d="M453.223 291.267C453.223 291.267 464.422 300.926 471.901 301.807" stroke="#181818" stroke-width="2.09129" stroke-miterlimit="1.5" stroke-linecap="round" stroke-linejoin="round"/>
<path d="M450.814 296.751C450.814 296.751 458.956 304.39 463.795 305.039" stroke="#181818" stroke-width="2.09129" stroke-miterlimit="1.5" stroke-linecap="round" stroke-linejoin="round"/>
<path d="M442.477 296.763C442.477 296.763 450.311 305.369 451.539 306.116C452.767 306.862 458.515 307.303 458.515 307.303" stroke="#181818" stroke-width="2.09129" stroke-miterlimit="1.5" stroke-linecap="round" stroke-linejoin="round"/>
<path d="M470.182 286.639C470.182 286.639 480.387 282.672 482.327 281.999" stroke="#181818" stroke-width="2.09129" stroke-miterlimit="1.5" stroke-linecap="round" stroke-linejoin="round"/>
<path d="M470.709 293.433L485.728 289.051" stroke="#181818" stroke-width="2.09129" stroke-miterlimit="1.5" stroke-linecap="round" stroke-linejoin="round"/>
<path d="M477.059 297.571L487.681 296.09" stroke="#181818" stroke-width="2.09129" stroke-miterlimit="1.5" stroke-linecap="round" stroke-linejoin="round"/>
<path fill-rule="evenodd" clip-rule="evenodd" d="M479.06 186.769L498.942 175.495L498.93 154.94C498.93 154.94 490.948 151.28 490.788 135.672C490.616 120.051 489.965 89.14 512.192 90.0582C524.522 91.5027 528.231 95.2732 528.366 100.415C528.501 105.569 538.006 118.153 540.867 123.76C543.728 129.367 539.663 135.341 536.127 136.467C535.856 144.951 536.077 171.504 536.077 171.504L553.712 175.788L555.247 106.781C555.247 106.781 553.712 75.5516 516.699 74.2294C479.687 72.9195 478.152 108.592 478.692 127.727C479.244 146.873 479.06 186.769 479.06 186.769Z" stroke="#181818" stroke-width="2.09129" stroke-miterlimit="1.5" stroke-linecap="round" stroke-linejoin="round"/>
<path d="M498.744 154.965C498.744 154.965 509.403 168.125 528.499 154.83" stroke="#181818" stroke-width="2.09129" stroke-miterlimit="1.5" stroke-linecap="round" stroke-linejoin="round"/>
<path d="M508.962 122.548C508.962 122.548 506.69 130.015 507.378 132.88C508.053 135.745 512.904 134.006 512.904 134.006" stroke="#181818" stroke-width="2.09129" stroke-miterlimit="1.5" stroke-linecap="round" stroke-linejoin="round"/>
<path d="M504.786 112.608C504.786 112.608 497.221 109.033 492.592 112.24" stroke="#181818" stroke-width="2.09129" stroke-miterlimit="1.5" stroke-linecap="round" stroke-linejoin="round"/>
<path d="M519.154 112.326C519.154 112.326 528.61 108.874 532.957 112.448" stroke="#181818" stroke-width="2.09129" stroke-miterlimit="1.5" stroke-linecap="round" stroke-linejoin="round"/>
<path d="M521.66 120.43C521.66 120.43 527.039 118.08 530.637 121.324" stroke="#181818" stroke-width="2.09129" stroke-miterlimit="1.5" stroke-linecap="round" stroke-linejoin="round"/>
<path d="M503.976 120.834C503.976 120.834 499.531 117.871 495.957 120.687" stroke="#181818" stroke-width="2.09129" stroke-miterlimit="1.5" stroke-linecap="round" stroke-linejoin="round"/>
<path d="M521.647 144.608C521.647 144.608 511.172 151.158 503.951 144.314" stroke="#181818" stroke-width="2.09129" stroke-miterlimit="1.5" stroke-linecap="round" stroke-linejoin="round"/>
<path fill-rule="evenodd" clip-rule="evenodd" d="M432.739 215.098C469.268 200.046 473.559 157.518 450.659 135.396C427.754 113.264 442.912 106.855 430.047 97.6074C417.188 88.3701 417.997 70.9284 400.173 63.649C382.349 56.3697 357.698 66.9029 352.779 79.1364C343.038 103.397 323.933 102.303 341.95 126.533C341.131 137.574 342.889 148.548 347.366 151.574C350.571 139.76 350.914 132.147 350.914 132.147C350.914 132.147 350.268 116.714 352.646 110.488C355.035 104.256 360.065 77.1528 376.576 79.301C393.076 81.4551 402.658 86.5921 402.984 99.283C403.326 111.979 395.609 136.46 388.891 142.502C382.174 148.544 381.517 149.461 381.517 149.461L385.204 168.691C385.204 168.691 415.704 222.113 432.739 215.098Z" fill="#181818" stroke="#181818" stroke-width="2.09003" stroke-miterlimit="1.5" stroke-linecap="round" stroke-linejoin="round"/>
<path d="M382.279 148.854C382.279 148.854 362.121 164.079 350.2 136.823" stroke="#181818" stroke-width="2.09003" stroke-miterlimit="1.5" stroke-linecap="round" stroke-linejoin="round"/>
<path d="M364.857 136.913C364.857 136.913 368.027 139.813 374.1 138.898" stroke="#181818" stroke-width="2.08" stroke-miterlimit="1.5" stroke-linecap="round" stroke-linejoin="round"/>
<path d="M378.83 115.579C378.83 115.579 378.681 120.519 377.945 125.361C377.673 127.129 372.577 126.994 370.962 123.883" stroke="#181818" stroke-width="2.09003" stroke-miterlimit="1.5" stroke-linecap="round" stroke-linejoin="round"/>
<path d="M397.555 109.052C397.555 109.052 392.551 102.627 385.822 105.395" stroke="#181818" stroke-width="2.09003" stroke-miterlimit="1.5" stroke-linecap="round" stroke-linejoin="round"/>
<path d="M372.319 101.931C372.319 101.931 367.315 95.5069 360.585 98.2752" stroke="#181818" stroke-width="2.09003" stroke-miterlimit="1.5" stroke-linecap="round" stroke-linejoin="round"/>
<path d="M365.25 102.062L364.621 104.407" stroke="#181818" stroke-width="2.5" stroke-miterlimit="1.5" stroke-linecap="round" stroke-linejoin="round"/>
<path d="M390.605 108.329L389.482 111.06" stroke="#181818" stroke-width="2.5" stroke-miterlimit="1.5" stroke-linecap="round" stroke-linejoin="round"/>
<path d="M395.27 200.9C395.27 200.9 366.304 212.828 341.437 193.168" stroke="#181818" stroke-width="2.09003" stroke-miterlimit="1.5" stroke-linecap="round" stroke-linejoin="round"/>
<path d="M420.627 325.085L311.158 325.159L311.244 290.659" stroke="#181818" stroke-width="2.09003" stroke-miterlimit="1.5" stroke-linecap="round" stroke-linejoin="round"/>
<path d="M435.825 331.901L445.533 392.104" stroke="#181818" stroke-width="2.09003" stroke-miterlimit="1.5" stroke-linecap="round" stroke-linejoin="round"/>
<path fill-rule="evenodd" clip-rule="evenodd" d="M421.769 325.134L435.441 325.856L428.531 284.273C428.531 284.273 439.393 222.846 428.617 192.421C427.672 189.754 426.285 185.802 420.762 183.539C394.178 172.663 385.193 168.834 385.193 168.834C385.193 168.834 400.658 223.544 394.595 266.827C409.397 300.372 421.769 325.134 421.769 325.134Z" fill="#008CFB" stroke="#008CFB" stroke-width="2.09003" stroke-miterlimit="1.5" stroke-linecap="round" stroke-linejoin="round"/>
<path d="M422.063 325.709C422.063 325.709 438.153 361.762 428.813 402.367C419.485 442.861 414.576 460.636 414.576 460.636" stroke="#181818" stroke-width="2.09003" stroke-miterlimit="1.5" stroke-linecap="round" stroke-linejoin="round"/>
<path d="M376.32 393.803L422.8 504.397L443.727 596.408" stroke="#181818" stroke-width="2.09003" stroke-miterlimit="1.5" stroke-linecap="round" stroke-linejoin="round"/>
<path d="M407.58 594.867L311.87 405.878" stroke="#181818" stroke-width="2.09003" stroke-miterlimit="1.5" stroke-linecap="round" stroke-linejoin="round"/>
<path fill-rule="evenodd" clip-rule="evenodd" d="M341.475 157.971L339.916 287.454L308.287 290.512L301.303 323.36L288.71 325.037L289.385 315.861C293.853 308.68 297.621 300.006 296.283 295.064L298.173 288.702C298.345 284.334 293.301 275.661 292.208 267.77L287.839 232.781C287.839 232.781 283.003 206.931 279.849 200.031C284.869 187.515 291.067 172.541 294.798 165.201C300.886 153.248 341.475 157.971 341.475 157.971Z" fill="#008CFB" stroke="#008CFB" stroke-width="2.09003" stroke-miterlimit="1.5" stroke-linecap="round" stroke-linejoin="round"/>
<path d="M300.53 323.947L299.635 350.116L314.977 364.136" stroke="#181818" stroke-width="2.09003" stroke-miterlimit="1.5" stroke-linecap="round" stroke-linejoin="round"/>
<path d="M327.729 353.48L307.146 373.189" stroke="#181818" stroke-width="2.09003" stroke-miterlimit="1.5" stroke-linecap="round" stroke-linejoin="round"/>
<path d="M305.096 364.467L306.581 375.49L320.659 389.681C324.083 392.923 321.027 397.07 318.45 395.382L297.597 381.741L314.129 401.731C317.124 405.034 313.442 408.068 311.098 405.23L291.607 386.365" stroke="#181818" stroke-width="2.09003" stroke-miterlimit="1.5" stroke-linecap="round" stroke-linejoin="round"/>
<path d="M398.363 244.023L362.217 258.252" stroke="#181818" stroke-width="2.09003" stroke-miterlimit="1.5" stroke-linecap="round" stroke-linejoin="round"/>
<path d="M337.564 482.635L307.154 567.689" stroke="#181818" stroke-width="2.09003" stroke-miterlimit="1.5" stroke-linecap="round" stroke-linejoin="round"/>
<path d="M315 211.677L303.266 275.415" stroke="#181818" stroke-width="2.09003" stroke-miterlimit="1.5" stroke-linecap="round" stroke-linejoin="round"/>
<path d="M810.341 172.4C815.15 170.996 816.784 165.348 816.904 157.332" stroke="#181818" stroke-width="2.08528" stroke-miterlimit="1.5" stroke-linecap="round" stroke-linejoin="round"/>
<path d="M868.636 114.738C871.479 119.029 869.449 127.462 863.478 126.532C861.845 132.606 857.653 144.233 854.146 152.71C850.892 160.539 822.845 161.086 819.123 152.504C815.832 144.902 811.259 131.356 810.463 127.016C805.518 127.764 801.874 118.565 802.572 113.455" stroke="#181818" stroke-width="2.08528" stroke-miterlimit="1.5" stroke-linecap="round" stroke-linejoin="round"/>
<path d="M858.383 153.825C858.171 163.769 859.787 174.207 868.381 175.388" stroke="#181818" stroke-width="2.08528" stroke-miterlimit="1.5" stroke-linecap="round" stroke-linejoin="round"/>
<path fill-rule="evenodd" clip-rule="evenodd" d="M765.517 413.159L738.279 595.189L798.923 595.484L827.791 477.787L824.94 446.788C824.687 444.853 826.682 444.563 826.785 446.145L830.168 477.122L841.299 602.317L900.444 607.143L897.238 406.618L765.517 413.159Z" fill="#181818" stroke="#181818" stroke-width="2.08528" stroke-miterlimit="1.5" stroke-linecap="round" stroke-linejoin="round"/>
<path d="M781.713 402.954L907.395 397.127L908.871 310.052" stroke="#181818" stroke-width="2.08528" stroke-miterlimit="1.5" stroke-linecap="round" stroke-linejoin="round"/>
<path d="M889.038 408.147L762.808 430.888" stroke="#181818" stroke-width="2.06787" stroke-miterlimit="1.5" stroke-linecap="round" stroke-linejoin="round"/>
<path d="M925.871 272.742L927.725 258.926C927.725 258.926 936.168 190.141 911.888 183.814C887.622 177.488 868.094 175.301 868.094 175.301" stroke="#181818" stroke-width="2.08528" stroke-miterlimit="1.5" stroke-linecap="round" stroke-linejoin="round"/>
<path d="M866.909 172.051C867.676 194.139 843.229 188.754 840.772 203.97C837.307 188.489 818.244 194.459 812.269 172.314" stroke="#181818" stroke-width="2.04934" stroke-miterlimit="1.5" stroke-linecap="round" stroke-linejoin="round"/>
<path d="M810.671 172.246C790.912 177.539 770.321 181.007 764.262 194.33C757.085 210.088 745.982 257.675 745.982 257.675" stroke="#181818" stroke-width="2.08528" stroke-miterlimit="1.5" stroke-linecap="round" stroke-linejoin="round"/>
<path d="M781.886 287.639C780.09 274.059 783.564 268.493 785.631 260.987C774 252.55 755.607 252.606 747.92 256.712C747.92 256.712 726.219 302.945 737.438 305.33C752.275 308.477 779.63 313.612 817.601 314.075C836.919 314.299 848.249 310.757 855.665 306.727" stroke="#181818" stroke-width="2.08528" stroke-miterlimit="1.5" stroke-linecap="round" stroke-linejoin="round"/>
<path d="M788.46 266.405C834.133 259.99 856.531 265.24 885.811 268.48L897.111 254.607" stroke="#181818" stroke-width="2.08528" stroke-miterlimit="1.5" stroke-linecap="round" stroke-linejoin="round"/>
<path d="M902.999 250.215C908.757 250.059 927.455 261.268 926.89 265.5C925.238 278.157 920.674 304.085 910.805 308.907C897.664 315.348 871.65 306.532 861.774 302.161C852.156 297.911 835.667 282.94 785.407 282.16" stroke="#181818" stroke-width="2.08528" stroke-miterlimit="1.5" stroke-linecap="round" stroke-linejoin="round"/>
<path d="M851.244 264.247C851.244 264.247 861.545 252.165 874.593 247.455C885.551 243.493 897.466 247.299 897.466 247.299" stroke="#181818" stroke-width="2.08528" stroke-miterlimit="1.5" stroke-linecap="round" stroke-linejoin="round"/>
<path d="M891.524 251.769C891.524 251.769 883.127 249.209 875.025 255.5" stroke="#181818" stroke-width="2.08" stroke-miterlimit="1.5" stroke-linecap="round" stroke-linejoin="round"/>
<path d="M887.029 257.301C887.029 257.301 881.937 256.749 878.847 259.926" stroke="#181818" stroke-width="2.08" stroke-miterlimit="1.5" stroke-linecap="round" stroke-linejoin="round"/>
<path d="M855.036 106.793C855.036 106.793 848.659 103.771 842.578 106.399" stroke="#181818" stroke-width="2.07923" stroke-miterlimit="1.5" stroke-linecap="round" stroke-linejoin="round"/>
<path d="M818.067 108.243C818.067 108.243 824.445 105.223 830.525 107.846" stroke="#181818" stroke-width="2.07923" stroke-miterlimit="1.5" stroke-linecap="round" stroke-linejoin="round"/>
<path d="M824.262 112.725C825.016 112.725 825.626 112.128 825.626 111.392C825.627 110.657 825.016 110.06 824.263 110.06C823.509 110.06 822.898 110.657 822.898 111.393C822.898 112.129 823.509 112.725 824.262 112.725Z" fill="#181818"/>
<path d="M848.461 113.068C849.215 113.068 849.826 112.471 849.826 111.735C849.826 110.999 849.215 110.403 848.462 110.403C847.708 110.403 847.098 111 847.097 111.736C847.097 112.472 847.708 113.068 848.461 113.068Z" fill="#181818"/>
<path d="M838.402 116.664C838.402 116.664 842.844 124.623 842.123 130.32C841.81 132.78 836.129 132.317 834.689 129.749" stroke="#181818" stroke-width="2.07923" stroke-miterlimit="1.5" stroke-linecap="round" stroke-linejoin="round"/>
<path d="M844.66 143.157C841.047 146.191 835.109 147.015 829.518 143.572" stroke="#181818" stroke-width="2.08" stroke-miterlimit="1.5" stroke-linecap="round" stroke-linejoin="round"/>
<path fill-rule="evenodd" clip-rule="evenodd" d="M809.542 108.709C806.477 108.881 804.052 111.197 802.241 112.796C799.053 108.048 797.936 93.3224 802.632 82.7485C812.212 61.1616 860.905 62.6228 868.064 88.1879C870.189 95.7713 872.092 110.677 868.76 115.017C866.145 111.959 863.489 110.448 861.795 109.273C861.795 109.273 861.763 84.629 856.211 88.5571C848.217 94.2177 825.838 92.785 812.605 88.595C809.973 87.7738 804.562 100.463 809.542 108.709Z" fill="#181818" stroke="#181818" stroke-width="2.08528" stroke-miterlimit="1.5" stroke-linecap="round" stroke-linejoin="round"/>
<path d="M668.283 593.164L681.895 432.595L678.782 469.3L690.286 593.246" stroke="#181818" stroke-width="2.08388" stroke-miterlimit="1.5" stroke-linecap="round" stroke-linejoin="round"/>
<path d="M739.215 593.369C739.215 593.369 767.033 406.3 768.496 387.894L610.433 385.73L589.742 389.658C591.011 402.758 609.931 536.038 614.473 591.255" stroke="#181818" stroke-width="2.08388" stroke-miterlimit="1.5" stroke-linecap="round" stroke-linejoin="round"/>
<path fill-rule="evenodd" clip-rule="evenodd" d="M652.213 168.537C652.213 168.537 598.751 184.755 592.058 215.512C584.823 248.758 577.796 366.35 591.72 401.689C600.349 392.653 608.359 391.324 617.788 389.107C624.179 397.189 727.469 411.77 740.102 398.185C748.675 388.963 761.386 391.896 767.907 396.614C777.696 374.148 778.38 269.763 766.132 215.512C758.551 181.945 705.232 168.483 705.232 168.483C705.981 197.756 662.067 199.887 652.213 168.537Z" fill="#008CFB" stroke="#008CFB" stroke-width="2.08388" stroke-miterlimit="1.5" stroke-linecap="round" stroke-linejoin="round"/>
<path d="M659.666 155.521C658.783 162.965 657.146 165.108 652.453 168.304C664.892 200.159 703.446 195.948 705.187 168.143" stroke="#181818" stroke-width="2.08388" stroke-miterlimit="1.5" stroke-linecap="round" stroke-linejoin="round"/>
<path d="M646.662 117.517C646.873 121.904 647.195 124.881 647.678 126.906C648.78 131.535 650.7 131.258 654.094 131.607C654.094 131.607 663.793 163.585 680.677 163.995C693.447 164.308 699.641 155.497 709.129 133.427C709.711 132.065 714.716 133.27 715.942 120.301" stroke="#181818" stroke-width="2.08411" stroke-miterlimit="1.5" stroke-linecap="round" stroke-linejoin="round"/>
<path d="M703.347 110.128C703.27 109.985 696.124 107.168 690.808 109.331" stroke="#181818" stroke-width="2.09266" stroke-miterlimit="1.5" stroke-linecap="round" stroke-linejoin="round"/>
<path d="M674.453 108.922C674.453 108.922 668.504 106.507 662.916 109.858" stroke="#181818" stroke-width="2.09266" stroke-miterlimit="1.5" stroke-linecap="round" stroke-linejoin="round"/>
<path d="M668.975 115.811L668.949 119.321" stroke="#181818" stroke-width="2.08746" stroke-miterlimit="1.5" stroke-linecap="round" stroke-linejoin="round"/>
<path d="M696.971 116.08L696.767 120.046" stroke="#181818" stroke-width="2.03122" stroke-miterlimit="1.5" stroke-linecap="round" stroke-linejoin="round"/>
<path d="M687.292 126.578C687.805 127.411 688.292 128.872 688.364 129.932C685.35 131.609 682.381 132.781 677.41 129.892C677.302 129.143 677.199 128.233 678.36 126.585" stroke="#181818" stroke-width="2.08082" stroke-miterlimit="1.5" stroke-linecap="round" stroke-linejoin="round"/>
<path d="M689.993 142.367C685.401 146.817 678.881 146.466 674.024 141.263" stroke="#181818" stroke-width="2.09266" stroke-miterlimit="1.5" stroke-linecap="round" stroke-linejoin="round"/>
<path d="M648.847 117.868C641.822 92.888 648.077 84.8682 656.454 77.0982C665.709 68.513 703.823 65.7916 712.849 77.1903" stroke="#181818" stroke-width="2.07839" stroke-miterlimit="1.5" stroke-linecap="round" stroke-linejoin="round"/>
<path d="M690.246 80.2402C701.89 87.0986 705.816 84.7844 710.164 81.8795C717.324 77.0943 721.845 99.2726 713.509 116.015" stroke="#181818" stroke-width="2.08411" stroke-miterlimit="1.5" stroke-linecap="round" stroke-linejoin="round"/>
<path d="M708.814 123.633C708.814 123.633 710.957 100.948 706.089 96.1874C699.153 89.4134 692.241 98.7186 682.529 91.9446C676.324 87.6294 669.127 83.435 664.333 88.7626C659.539 94.0782 653.903 106.324 653.891 111.001C653.866 117.751 653.705 122.898 653.705 122.898" stroke="#181818" stroke-width="2.08411" stroke-miterlimit="1.5" stroke-linecap="round" stroke-linejoin="round"/>
<path d="M617.031 389.667C617.031 389.667 610.671 305.115 613.498 251.979" stroke="#181818" stroke-width="2.08388" stroke-miterlimit="1.5" stroke-linecap="round" stroke-linejoin="round"/>
<path d="M628.933 388.15C628.933 388.15 605.9 387.749 596.232 407.91" stroke="#181818" stroke-width="2.08179" stroke-miterlimit="1.5" stroke-linecap="round" stroke-linejoin="round"/>
<path d="M740.457 398.374C740.457 398.374 748.679 273.09 741.769 250.164" stroke="#181818" stroke-width="2.08388" stroke-miterlimit="1.5" stroke-linecap="round" stroke-linejoin="round"/>
<path d="M734.262 398.213C734.262 398.213 746.666 397.65 758.079 407.237" stroke="#181818" stroke-width="2.08388" stroke-miterlimit="1.5" stroke-linecap="round" stroke-linejoin="round"/>
<path d="M652.127 187.836C667.886 204.44 701.094 204.395 712.948 180.967" stroke="#F5F5F5" stroke-width="2.08388" stroke-miterlimit="1.5" stroke-linecap="round" stroke-linejoin="round"/>
<path d="M904.008 81.5029L904.032 84.8372" stroke="#181818" stroke-width="2.08331" stroke-miterlimit="1.5" stroke-linecap="round" stroke-linejoin="round"/>
<path d="M927.576 81.3301L927.601 84.6644" stroke="#181818" stroke-width="2.08331" stroke-miterlimit="1.5" stroke-linecap="round" stroke-linejoin="round"/>
<path d="M890.523 97.6876C879.175 92.1985 879.345 83.5198 884.798 85.0904C890.252 86.661 890.617 95.3493 891.228 99.5613C891.851 103.773 894.729 126.4 915.936 126.093C936.719 125.792 937.128 99.9418 941.021 88.0878C944.925 76.2328 956.504 87.232 938.524 98.6125" stroke="#181818" stroke-width="2.08192" stroke-miterlimit="1.5" stroke-linecap="round" stroke-linejoin="round"/>
<path fill-rule="evenodd" clip-rule="evenodd" d="M890.264 92.5778C890.831 84.8888 889.268 53.1538 907.421 59.132C925.575 65.1092 933.084 61.2395 947.889 50.2662C920.78 45.6382 924.841 36.8719 901.899 43.8265C880.794 50.2257 880.44 74.6998 882.623 84.8364C888.135 85.1946 889.282 89.5472 890.264 92.5778Z" fill="#181818" stroke="#181818" stroke-width="2.08192" stroke-miterlimit="1.5" stroke-linecap="round" stroke-linejoin="round"/>
<path fill-rule="evenodd" clip-rule="evenodd" d="M938.315 64.1239C939.833 67.4043 939.765 88.1967 939.7 92.9169C942.906 81.8052 946.249 83.0812 946.249 83.0812C946.249 83.0812 950.23 63.6614 944.322 56.2967C938.245 48.72 932.502 51.5572 938.315 64.1239Z" fill="#181818" stroke="#181818" stroke-width="2.08192" stroke-miterlimit="1.5" stroke-linecap="round" stroke-linejoin="round"/>
<path d="M908.748 98.4004C908.748 98.4004 913.199 98.6031 915.345 100.758C918.39 97.8358 920.716 98.7261 922.812 98.7524" stroke="#181818" stroke-width="2.08192" stroke-miterlimit="1.5" stroke-linecap="round" stroke-linejoin="round"/>
<path d="M896.453 80.7798C896.453 80.7798 902.399 75.2045 909.499 77.7901" stroke="#181818" stroke-width="2.08192" stroke-miterlimit="1.5" stroke-linecap="round" stroke-linejoin="round"/>
<path d="M934.82 80.4986C934.82 80.4986 928.791 75.0108 921.73 77.7" stroke="#181818" stroke-width="2.08192" stroke-miterlimit="1.5" stroke-linecap="round" stroke-linejoin="round"/>
<path d="M907.01 108.949C907.01 108.949 911.673 113.672 923.183 109.462" stroke="#181818" stroke-width="2.08192" stroke-miterlimit="1.5" stroke-linecap="round" stroke-linejoin="round"/>
<path d="M898.163 460.957L896.844 381.557" stroke="#181818" stroke-width="2.08" stroke-miterlimit="1.5" stroke-linecap="round" stroke-linejoin="round"/>
<path d="M1135.04 125.633C1135.04 125.633 1131.4 125.639 1129.48 119.351C1128.8 117.096 1128.52 114.188 1128.44 109.966" stroke="#181818" stroke-width="2.08" stroke-miterlimit="1.5" stroke-linecap="round" stroke-linejoin="round"/>
<path fill-rule="evenodd" clip-rule="evenodd" d="M157.591 171.604C170.644 179.734 188.043 179.855 202.498 170.852C197.778 186.72 201.726 202.468 205.841 222.131C207.745 234.235 210.008 255.027 210.767 271.708C212.13 301.352 211.101 332.758 210.664 366.076L149.567 366.001C148.191 311.41 147.149 260.733 153.952 219.496C159.996 198.539 160.408 184.401 157.591 171.604Z" fill="#008CFB"/>
<path d="M69.7969 250.573C72.1502 228.33 79.4676 171.834 113.983 159.398C118.33 157.822 126.38 155.783 128.065 153.348C121.635 146.194 124.644 141.9 130.328 138.938C140.23 133.772 139.562 147.745 139.562 147.745C139.562 147.745 169.203 159.539 155.855 212.126C142.506 264.7 150.544 410.024 150.544 410.024L86.6946 410.819L120.593 196.819" stroke="#181818" stroke-width="2.50285" stroke-miterlimit="1.5" stroke-linecap="round" stroke-linejoin="round"/>
<path d="M220.058 147.746C220.058 147.746 190.416 159.54 203.765 212.126C217.113 264.7 209.076 410.025 209.076 410.025L266.752 410.82L255.912 317.723L289.231 315.825C289.231 315.825 298.542 303.018 296.214 294.762C301.384 285.122 293.771 280.956 292.151 267.495C290.53 254.047 284.692 173.475 245.636 159.399C241.29 157.822 233.239 155.784 231.555 153.348C239.669 144.323 234.397 135.644 214.426 130.785" stroke="#181818" stroke-width="2.50285" stroke-miterlimit="1.5" stroke-linecap="round" stroke-linejoin="round"/>
<path d="M242.717 199.896L255.744 317.044" stroke="#181818" stroke-width="2.50285" stroke-miterlimit="1.5" stroke-linecap="round" stroke-linejoin="round"/>
<path d="M30.6387 190.539C30.6387 190.539 35.0855 201.833 42.4676 202.777" stroke="#181818" stroke-width="2.49999" stroke-miterlimit="1.5" stroke-linecap="round" stroke-linejoin="round"/>
<path d="M38.3639 177.219L29.5706 154.266C27.6429 148.542 35.8781 145.793 37.9813 150.928L48.3479 176.774L51.634 149.033C52.5762 142.818 60.9289 144.43 60.707 150.136L58.1109 181.175" stroke="#181818" stroke-width="2.49999" stroke-miterlimit="1.5" stroke-linecap="round" stroke-linejoin="round"/>
<path d="M38.3616 177.219C38.3616 177.219 19.3349 183.346 22.092 190.806C24.849 198.26 30.2612 207.679 34.6413 207.249" stroke="#181818" stroke-width="2.49999" stroke-miterlimit="1.5" stroke-linecap="round" stroke-linejoin="round"/>
<path d="M32.7539 214.827C34.3038 240.849 49.6183 276.999 60.1895 299.192C62.4467 303.912 66.8328 307.269 71.9892 308.219C77.1455 309.171 82.4496 307.602 86.2586 304C86.2591 304 86.2593 304 86.2593 304L106.609 284.754" stroke="#181818" stroke-width="2.50032" stroke-miterlimit="1.5" stroke-linecap="round" stroke-linejoin="round"/>
<path d="M77.478 272.022L62.8919 232.757C60.0279 225.041 59.5451 216.647 61.5068 208.652C63.1328 202.024 64.8116 195.186 64.8116 195.186C64.8116 195.186 65.6234 192.441 65.0819 191.906C62.7496 189.609 47.57 181.941 47.57 181.941C45.8885 184.964 46.9317 189.72 48.3579 190.851C48.3579 190.851 55.5962 194.814 56.3668 195.577" stroke="#181818" stroke-width="2.49999" stroke-miterlimit="1.5" stroke-linecap="round" stroke-linejoin="round"/>
<path d="M287.997 336.222L288.164 381.347C288.164 381.347 283.097 420.742 257.982 424.729" stroke="#181818" stroke-width="2.50285" stroke-miterlimit="1.5" stroke-linecap="round" stroke-linejoin="round"/>
<path fill-rule="evenodd" clip-rule="evenodd" d="M259.369 410.312L247.6 514.692L115.854 514.972L100.892 410.356L150.612 409.951L148.721 365.597L210.525 366.129L209.115 409.896L259.369 410.312Z" fill="#181818" stroke="#181818" stroke-width="2.47374" stroke-miterlimit="1.5" stroke-linecap="round" stroke-linejoin="round"/>
<path d="M179.646 416.768L177.408 495.276" stroke="#FAFAFA" stroke-width="2.50285" stroke-miterlimit="1.5" stroke-linecap="round" stroke-linejoin="round"/>
<path d="M158.916 148.079L160.099 133.323" stroke="#181818" stroke-width="2.50285" stroke-miterlimit="1.5" stroke-linecap="round" stroke-linejoin="round"/>
<path d="M151.593 91.8701C151.349 116.638 157.483 140.431 176.387 147.098C179.537 148.2 182.778 147.969 184.964 147.098C203.56 139.624 210.015 116.638 209.771 91.8701" stroke="#181818" stroke-width="2.50285" stroke-miterlimit="1.5" stroke-linecap="round" stroke-linejoin="round"/>
<path d="M171.409 127.487C175.12 131.329 185.856 130.515 190.913 127.282C190.913 127.282 190.243 134.449 179.605 133.661" stroke="#181818" stroke-width="2.50001" stroke-miterlimit="1.5" stroke-linecap="round" stroke-linejoin="round"/>
<path d="M151.594 91.8712C151.594 91.8712 164.314 92.4688 162.316 82.2244C167.208 88.4678 175.201 90.7841 179.791 79.1396C186.317 87.9271 191.763 87.9498 196.725 82.7707C197.758 88.5474 212.636 91.9338 214.463 91.2622" stroke="#181818" stroke-width="2.50007" stroke-miterlimit="1.5" stroke-linecap="round" stroke-linejoin="round"/>
<path d="M179.766 108.855C179.766 108.855 174.932 121.815 183.57 118.405" stroke="#181818" stroke-width="2.48492" stroke-miterlimit="1.5" stroke-linecap="round" stroke-linejoin="round"/>
<path d="M187.48 97.533C187.48 97.533 195.2 94.8962 201.409 99.5122" stroke="#181818" stroke-width="2.50001" stroke-miterlimit="1.5" stroke-linecap="round" stroke-linejoin="round"/>
<path d="M173.617 98.5057C173.617 98.5057 165.898 95.8688 159.689 100.485" stroke="#181818" stroke-width="2.50001" stroke-miterlimit="1.5" stroke-linecap="round" stroke-linejoin="round"/>
<path d="M164.754 103.205C164.754 103.205 166.61 101.398 169.853 102.333" stroke="#181818" stroke-width="2.50001" stroke-miterlimit="1.5" stroke-linecap="round" stroke-linejoin="round"/>
<path d="M197.115 103.205C197.115 103.205 194.982 101.349 191.615 102.314" stroke="#181818" stroke-width="2.50001" stroke-miterlimit="1.5" stroke-linecap="round" stroke-linejoin="round"/>
<path d="M127.797 153.779C129.573 151.972 132.84 149.452 134.363 149.477" stroke="#181818" stroke-width="2.50001" stroke-miterlimit="1.5" stroke-linecap="round" stroke-linejoin="round"/>
<path d="M129.619 139.323C142.549 132.654 148.024 131.062 154.732 130.645" stroke="#181818" stroke-width="2.50001" stroke-miterlimit="1.5" stroke-linecap="round" stroke-linejoin="round"/>
<path d="M149.66 112.676C141.924 118.424 133.817 102.198 140.131 95.8466C131.859 92.8586 134.548 77.9815 145.012 79.3588C135.198 67.6574 148.124 57.3959 159.616 62.3758C156.065 53.8047 172.896 52.4728 177.897 58.7049C178.896 49.2629 205.626 52.5412 204.884 64.6979C211.627 56.9918 223.662 62.5181 218.072 73.1837C226.117 73.343 228.315 98.4703 217.239 101.532C222.685 104.002 220.185 124.292 211.707 116.358" stroke="#181818" stroke-width="2.50007" stroke-miterlimit="1.5" stroke-linecap="round" stroke-linejoin="round"/>
<path d="M203.58 147.515L201.805 132.272" stroke="#181818" stroke-width="2.50285" stroke-miterlimit="1.5" stroke-linecap="round" stroke-linejoin="round"/>
<path d="M62.334 250.016C62.334 250.016 80.2946 244.779 96.9851 260.397" stroke="#181818" stroke-width="2.5" stroke-miterlimit="1.5" stroke-linecap="round" stroke-linejoin="round"/>
<path d="M288.439 294.221C288.439 294.221 271.995 288.02 255.348 293.324" stroke="#181818" stroke-width="2.5" stroke-miterlimit="1.5" stroke-linecap="round" stroke-linejoin="round"/>
<path d="M280.41 381.056C280.41 381.056 273.747 370.901 264.955 375.274" stroke="#181818" stroke-width="2.48334" stroke-miterlimit="1.5" stroke-linecap="round" stroke-linejoin="round"/>
<path d="M929.039 121.141C930.943 125.746 934.116 132.134 938.091 135.336" stroke="#181818" stroke-width="2.08262" stroke-miterlimit="1.5" stroke-linecap="round" stroke-linejoin="round"/>
<path d="M898.743 118.947C897.534 124.297 895.094 132.982 891.161 137.299" stroke="#181818" stroke-width="1.6753" stroke-miterlimit="1.5" stroke-linecap="round" stroke-linejoin="round"/>
<path d="M255.891 70.5355C255.891 70.5355 250.059 124.083 280.072 123.526C303.325 123.095 306.989 108.473 310.086 98.9715C320.59 97.862 322.448 80.0784 316.848 76.847C309.351 80.3419 305.699 80.8534 307.067 67.2758C309.17 46.3494 301.286 47.3252 290.55 51.9082C279.802 56.49 261.182 55.4881 265.44 37.6406" stroke="#181818" stroke-width="2.08593" stroke-miterlimit="1.5" stroke-linecap="round" stroke-linejoin="round"/>
<path d="M310.717 84.6523C310.717 84.6523 311.778 93.4682 309.305 101.478" stroke="#181818" stroke-width="2.08" stroke-miterlimit="1.5" stroke-linecap="round" stroke-linejoin="round"/>
<path d="M317.054 69.59C317.054 69.59 325.39 40.275 305.802 35.7617" stroke="#181818" stroke-width="2.08593" stroke-miterlimit="1.5" stroke-linecap="round" stroke-linejoin="round"/>
<path d="M307.621 26.6396C307.621 26.6396 306.899 31.1505 287.711 29.7729C268.51 28.3965 274.975 37.5211 274.162 42.4408" stroke="#181818" stroke-width="2.08593" stroke-miterlimit="1.5" stroke-linecap="round" stroke-linejoin="round"/>
<path d="M266.201 49.3512C266.201 49.3512 256.291 62.7907 255.891 70.8354C255.04 53.5845 251.917 45.8269 264.588 41.4199" stroke="#181818" stroke-width="2.08593" stroke-miterlimit="1.5" stroke-linecap="round" stroke-linejoin="round"/>
<path d="M275.559 85.2598C275.559 85.2598 270.524 96.6694 276.358 97.0735C282.183 97.4763 282.473 95.5434 282.473 95.5434" stroke="#181818" stroke-width="2.03536" stroke-miterlimit="1.5" stroke-linecap="round" stroke-linejoin="round"/>
<path d="M284.525 109.209C284.525 109.209 277.558 113.471 270.153 108.279" stroke="#181818" stroke-width="2.08" stroke-miterlimit="1.5" stroke-linecap="round" stroke-linejoin="round"/>
<path d="M290.762 80.1562L290.323 82.2487" stroke="#181818" stroke-width="2.08593" stroke-miterlimit="1.5" stroke-linecap="round" stroke-linejoin="round"/>
<path d="M296.332 77.5844C296.332 77.5844 289.753 73.9396 284.352 76.703" stroke="#181818" stroke-width="2.08" stroke-miterlimit="1.5" stroke-linecap="round" stroke-linejoin="round"/>
<path d="M269.129 76.4187C269.129 76.4187 265.73 73.7684 259.356 77.2989" stroke="#181818" stroke-width="2.06618" stroke-miterlimit="1.5" stroke-linecap="round" stroke-linejoin="round"/>
<path d="M265.057 79.5635L265.354 82.3577" stroke="#181818" stroke-width="2.08593" stroke-miterlimit="1.5" stroke-linecap="round" stroke-linejoin="round"/>
<path d="M267.805 120.393C267.805 120.393 268.112 129.088 265.866 136.127C265.764 136.45 272.186 139.393 281.052 139.983C289.375 140.536 294.771 139.754 298.502 138.496" stroke="#181818" stroke-width="2.08" stroke-miterlimit="1.5" stroke-linecap="round" stroke-linejoin="round"/>
<path d="M300.524 116.91C300.524 116.91 300.351 133.424 307.101 141.567" stroke="#181818" stroke-width="2.08" stroke-miterlimit="1.5" stroke-linecap="round" stroke-linejoin="round"/>
<path d="M301.066 124.646C301.066 124.646 323.934 127.031 337.805 134.286" stroke="#181818" stroke-width="2.08" stroke-miterlimit="1.5" stroke-linecap="round" stroke-linejoin="round"/>
<path d="M267.676 125.559C267.676 125.559 246.856 125.376 229.193 129.394" stroke="#181818" stroke-width="2.07864" stroke-miterlimit="1.5" stroke-linecap="round" stroke-linejoin="round"/>
<path d="M267.06 129.451C254.86 129.565 243.175 142.791 268.998 147.31C279.778 149.197 294.186 149.025 303.229 146.811C315.848 143.721 321.653 135.521 304.439 130.85" stroke="#181818" stroke-width="2.08" stroke-miterlimit="1.5" stroke-linecap="round" stroke-linejoin="round"/>
<path d="M710.344 162.564C717.091 158.985 726.027 156.874 737.699 158.476C741.844 149.286 745.898 141.071 745.898 141.071C745.898 141.071 733.298 133.499 729.858 112.034C726.384 90.2823 734.538 73.5496 750.445 69.623C758.889 78.3795 768.484 90.0464 777.476 91.5734C787.407 94.5076 787.742 122.527 781.118 132.296C776.482 139.139 756.834 144.314 750.377 134.616" stroke="#181818" stroke-width="2.07495" stroke-miterlimit="1.5" stroke-linecap="round" stroke-linejoin="round"/>
<path d="M766.943 175.652L774.729 137.225" stroke="#181818" stroke-width="2.07495" stroke-miterlimit="1.5" stroke-linecap="round" stroke-linejoin="round"/>
<path d="M718.119 73.2266C726.028 63.1199 738.404 58.2757 755.316 66.143" stroke="#181818" stroke-width="2.07495" stroke-miterlimit="1.5" stroke-linecap="round" stroke-linejoin="round"/>
<path d="M743.52 62.2308C788.569 49.4874 793.852 95.509 788.993 105.797C793.238 113.61 801.906 137.861 779.052 152.759" stroke="#181818" stroke-width="2.07495" stroke-miterlimit="1.5" stroke-linecap="round" stroke-linejoin="round"/>
<path d="M750.719 100.316L751.478 102.9" stroke="#181818" stroke-width="2.07495" stroke-miterlimit="1.5" stroke-linecap="round" stroke-linejoin="round"/>
<path d="M770.432 94.0518L771.19 96.635" stroke="#181818" stroke-width="2.07495" stroke-miterlimit="1.5" stroke-linecap="round" stroke-linejoin="round"/>
<path d="M764.09 100.489C764.09 100.489 767.662 105.408 770.669 108.699C771.836 109.965 769.174 111.129 766.913 112.329" stroke="#181818" stroke-width="2.07495" stroke-miterlimit="1.5" stroke-linecap="round" stroke-linejoin="round"/>
<path d="M763.336 91.3905C763.336 91.3905 765.86 88.4883 770.261 88.6886" stroke="#181818" stroke-width="2.07495" stroke-miterlimit="1.5" stroke-linecap="round" stroke-linejoin="round"/>
<path d="M755.382 93.6694C755.382 93.6694 747.194 91.1667 741.408 97.7334" stroke="#181818" stroke-width="2.07495" stroke-miterlimit="1.5" stroke-linecap="round" stroke-linejoin="round"/>
<path d="M763.488 123.28C763.488 123.28 770.768 127.235 774.994 120.654" stroke="#181818" stroke-width="2.07868" stroke-miterlimit="1.5" stroke-linecap="round" stroke-linejoin="round"/>
<path d="M777.678 163.54C777.678 163.54 786.893 165.615 792.054 177.078" stroke="#181818" stroke-width="2.07495" stroke-miterlimit="1.5" stroke-linecap="round" stroke-linejoin="round"/>
<path d="M413.189 207.549C418.179 223.957 419.049 264.633 416.485 274.17" stroke="#181818" stroke-width="2.08" stroke-miterlimit="1.5" stroke-linecap="round" stroke-linejoin="round"/>
<path d="M1074.25 78.0664C1074.25 78.0664 1065.38 88.7705 1066.57 98.7326" stroke="#181818" stroke-width="2.08" stroke-miterlimit="1.5" stroke-linecap="round" stroke-linejoin="round"/>
<path d="M1086.75 76.582C1086.56 85.9959 1092.1 89.9272 1093.2 95.7504" stroke="#181818" stroke-width="2.08" stroke-miterlimit="1.5" stroke-linecap="round" stroke-linejoin="round"/>
<path d="M1057.4 88.5312C1057.4 88.5312 1023.8 140.086 1063.1 157.447" stroke="#181818" stroke-width="2.08" stroke-miterlimit="1.5" stroke-linecap="round" stroke-linejoin="round"/>
<path d="M1088.76 114.241L1089.32 116.949" stroke="#181818" stroke-width="2.08" stroke-miterlimit="1.5" stroke-linecap="round" stroke-linejoin="round"/>
<path d="M1068.87 117.78L1069.43 120.488" stroke="#181818" stroke-width="2.08" stroke-miterlimit="1.5" stroke-linecap="round" stroke-linejoin="round"/>
</g>
<rect y="512" width="5" height="1280" transform="rotate(-90 0 512)" fill="#181818"/>
</g>
<defs>
<clipPath id="clip0_1155_2854">
<rect width="1280" height="512" fill="white"/>
</clipPath>
</defs>
</svg>
