<svg width="51" height="57" viewBox="0 0 51 57" fill="none" xmlns="http://www.w3.org/2000/svg">
<path d="M25.4992 0C26.444 0 27.3501 0.375334 28.0182 1.04343C28.6863 1.71153 29.0617 2.61767 29.0617 3.5625V22.3298L45.3138 12.9461C45.7191 12.7085 46.1674 12.5534 46.6329 12.4898C47.0984 12.4261 47.5719 12.4552 48.0261 12.5753C48.4803 12.6954 48.9063 12.9041 49.2795 13.1895C49.6527 13.4749 49.9658 13.8313 50.2007 14.2381C50.4356 14.645 50.5877 15.0943 50.6483 15.5602C50.7088 16.0262 50.6766 16.4994 50.5535 16.9528C50.4304 17.4062 50.2189 17.8308 49.931 18.2021C49.6432 18.5735 49.2847 18.8842 48.8763 19.1164L32.6242 28.5L48.8763 37.8836C49.2847 38.1158 49.6432 38.4265 49.931 38.7979C50.2189 39.1692 50.4304 39.5937 50.5535 40.0472C50.6766 40.5006 50.7088 40.9738 50.6483 41.4398C50.5877 41.9057 50.4356 42.355 50.2007 42.7619C49.9658 43.1687 49.6527 43.5251 49.2795 43.8105C48.9063 44.0959 48.4803 44.3046 48.0261 44.4247C47.5719 44.5448 47.0984 44.5739 46.6329 44.5102C46.1674 44.4466 45.7191 44.2915 45.3138 44.0539L29.0617 34.6702V53.4375C29.0617 54.3823 28.6863 55.2885 28.0182 55.9566C27.3501 56.6247 26.444 57 25.4992 57C24.5543 57 23.6482 56.6247 22.9801 55.9566C22.312 55.2885 21.9367 54.3823 21.9367 53.4375V34.6702L5.68453 44.0539C5.27922 44.2915 4.83091 44.4466 4.36542 44.5102C3.89993 44.5739 3.42645 44.5448 2.97223 44.4247C2.51802 44.3046 2.09204 44.0959 1.71883 43.8105C1.34561 43.5251 1.03254 43.1687 0.79762 42.7619C0.562703 42.355 0.410587 41.9057 0.35003 41.4398C0.289472 40.9738 0.321669 40.5006 0.444767 40.0472C0.567865 39.5937 0.779432 39.1692 1.06729 38.7979C1.35514 38.4265 1.7136 38.1158 2.12203 37.8836L18.3742 28.5L2.12203 19.1164C1.31047 18.6406 0.720036 17.8631 0.479581 16.9536C0.239126 16.0442 0.368169 15.0765 0.838549 14.2618C1.30893 13.4471 2.08246 12.8515 2.99034 12.605C3.89821 12.3585 4.86673 12.4812 5.68453 12.9461L21.9367 22.3298V3.5625C21.9367 2.61767 22.312 1.71153 22.9801 1.04343C23.6482 0.375334 24.5543 0 25.4992 0Z" fill="#181818"/>
</svg>
